<?xml version="1.0" encoding="UTF-8" standalone="no"?>
<!-- Created with Inkscape (http://www.inkscape.org/) -->

<svg
   xmlns:dc="http://purl.org/dc/elements/1.1/"
   xmlns:cc="http://creativecommons.org/ns#"
   xmlns:rdf="http://www.w3.org/1999/02/22-rdf-syntax-ns#"
   xmlns:svg="http://www.w3.org/2000/svg"
   xmlns="http://www.w3.org/2000/svg"
   xmlns:sodipodi="http://sodipodi.sourceforge.net/DTD/sodipodi-0.dtd"
   xmlns:inkscape="http://www.inkscape.org/namespaces/inkscape"
   width="49.671223mm"
   height="82.126877mm"
   viewBox="0 0 176.00041 291.00076"
   id="svg2"
   version="1.1"
   inkscape:version="0.91 r13725"
   sodipodi:docname="2.svg">
  <defs
     id="defs4">
    <clipPath
       clipPathUnits="userSpaceOnUse"
       id="clipPath7191">
      <path
         inkscape:connector-curvature="0"
         id="path7193"
         d="m -610,545.55947 a 30,30 0 0 0 -28.34961,20.28516 18.535015,18.535015 0 0 0 -3.11523,-0.28516 18.535015,18.535015 0 0 0 -18.53516,18.53516 18.535015,18.535015 0 0 0 0.0723,1.46484 l 78.17773,0 a 30,30 0 0 0 1.75,-10 30,30 0 0 0 -30,-30 z"
         style="opacity:1;fill:#ffffff;fill-opacity:1;stroke:#898989;stroke-width:6;stroke-linecap:round;stroke-linejoin:round;stroke-miterlimit:4;stroke-dasharray:none;stroke-dashoffset:0;stroke-opacity:1" />
    </clipPath>
    <clipPath
       clipPathUnits="userSpaceOnUse"
       id="clipPath7197">
      <path
         inkscape:connector-curvature="0"
         id="path7199"
         d="m -752.92969,604.09375 a 27.07004,27.07004 0 0 1 26.11133,20.04883 20,20 0 0 1 0.95898,-0.0488 20,20 0 0 1 20,20 l -70.82227,0 A 27.07004,27.07004 0 0 1 -780,631.16406 a 27.07004,27.07004 0 0 1 27.07031,-27.07031 z"
         style="opacity:1;fill:#ffffff;fill-opacity:1;stroke:#898989;stroke-width:6;stroke-linecap:round;stroke-linejoin:round;stroke-miterlimit:4;stroke-dasharray:none;stroke-dashoffset:0;stroke-opacity:1" />
    </clipPath>
    <clipPath
       clipPathUnits="userSpaceOnUse"
       id="clipPath7218">
      <path
         inkscape:connector-curvature="0"
         id="path7220"
         d="m -200,624.09449 a 40,40 0 0 0 -40,40 20,20 0 0 0 -20,20 l 118.25,0 a 30,30 0 0 0 1.75,-10 30,30 0 0 0 -25.17188,-29.57227 A 40,40 0 0 0 -200,624.09449 Z"
         style="opacity:1;fill:#ffffff;fill-opacity:1;stroke:#304d50;stroke-width:6;stroke-linecap:round;stroke-linejoin:round;stroke-miterlimit:4;stroke-dasharray:none;stroke-dashoffset:0;stroke-opacity:1" />
    </clipPath>
    <clipPath
       clipPathUnits="userSpaceOnUse"
       id="clipPath7227">
      <path
         inkscape:connector-curvature="0"
         id="path7229"
         d="m -320,564.09449 a 40,40 0 0 0 -40,40 20,20 0 0 0 -20,20 l 120,0 a 20,20 0 0 0 -20,-20 40,40 0 0 0 -40,-40 z"
         style="opacity:1;fill:#ffffff;fill-opacity:1;stroke:#304d50;stroke-width:6;stroke-linecap:round;stroke-linejoin:round;stroke-miterlimit:4;stroke-dasharray:none;stroke-dashoffset:0;stroke-opacity:1" />
    </clipPath>
    <clipPath
       clipPathUnits="userSpaceOnUse"
       id="clipPath7257">
      <path
         inkscape:connector-curvature="0"
         id="path7259"
         d="m -760,1024.0945 a 29.999996,29.999996 0 0 0 -30,30 29.999996,29.999996 0 0 0 1.75,10 l -11.75,0 c -5.54,0 -10,4.46 -10,10 0,5.5399 4.46,10 10,10 l 40,0 60,0 c 5.54,0 10,-4.4601 10,-10 0,-5.54 -4.46,-10 -10,-10 l -31.75391,0 a 29.999996,29.999996 0 0 0 1.75391,-10 29.999996,29.999996 0 0 0 -30,-30 z"
         style="opacity:1;fill:#ffffff;fill-opacity:1;stroke:#304d50;stroke-width:6;stroke-linecap:round;stroke-linejoin:round;stroke-miterlimit:4;stroke-dasharray:none;stroke-dashoffset:0;stroke-opacity:1" />
    </clipPath>
    <clipPath
       clipPathUnits="userSpaceOnUse"
       id="clipPath7263">
      <path
         sodipodi:nodetypes="scssscssscs"
         inkscape:connector-curvature="0"
         id="path7265"
         d="m -600,1024.0945 c -11.0457,0 -20,8.9543 -20,20 l -40,7e-4 c -5.54,10e-5 -10,4.46 -10,10 0,5.5399 4.46,10.0001 10,10 l 60,-7e-4 30,0 c 5.54,0 10,-4.4601 10,-10 0,-5.54 -4.46,-10 -10,-10 l -10,0 c 0,-11.0457 -8.9543,-20 -20,-20 z"
         style="opacity:1;fill:#ffffff;fill-opacity:1;stroke:#304d50;stroke-width:6;stroke-linecap:round;stroke-linejoin:round;stroke-miterlimit:4;stroke-dasharray:none;stroke-dashoffset:0;stroke-opacity:1" />
    </clipPath>
    <clipPath
       clipPathUnits="userSpaceOnUse"
       id="clipPath4094">
      <path
         sodipodi:nodetypes="cscsccccscsc"
         inkscape:connector-curvature="0"
         id="path4096"
         d="m -760,-135.90551 0,-40 c 0,-20 20,-20 20,-20 l 20,0 c 20,0 20,-20 20,-20 l 0,-20 40,0 0,20 c 0,0 0,20 20,20 l 20,0 c 0,0 20,0 20,20 l 0,40"
         style="opacity:1;fill:#ffffff;fill-opacity:1;stroke:#304d50;stroke-width:6;stroke-linecap:round;stroke-linejoin:round;stroke-miterlimit:4;stroke-dasharray:none;stroke-dashoffset:0;stroke-opacity:1" />
    </clipPath>
  </defs>
  <sodipodi:namedview
     id="base"
     pagecolor="#1a1a1a"
     bordercolor="#000000"
     borderopacity="1"
     inkscape:pageopacity="0"
     inkscape:pageshadow="2"
     inkscape:zoom="0.56637383"
     inkscape:cx="51.930563"
     inkscape:cy="16.827516"
     inkscape:document-units="px"
     inkscape:current-layer="layer2"
     showgrid="true"
     inkscape:showpageshadow="true"
     borderlayer="false"
     inkscape:window-width="1366"
     inkscape:window-height="715"
     inkscape:window-x="-8"
     inkscape:window-y="-8"
     inkscape:window-maximized="1"
     showborder="false"
     inkscape:object-paths="true"
     inkscape:snap-intersection-paths="true"
     inkscape:object-nodes="true"
     inkscape:snap-smooth-nodes="true"
     fit-margin-top="0"
     fit-margin-left="0"
     fit-margin-right="0"
     fit-margin-bottom="0">
    <inkscape:grid
       type="xygrid"
       id="grid8099"
       empspacing="20"
       originx="-167.87139"
       originy="-431.28682" />
  </sodipodi:namedview>
  <metadata
     id="metadata7">
    <rdf:RDF>
      <cc:Work
         rdf:about="">
        <dc:format>image/svg+xml</dc:format>
        <dc:type
           rdf:resource="http://purl.org/dc/dcmitype/StillImage" />
        <dc:title></dc:title>
      </cc:Work>
    </rdf:RDF>
  </metadata>
  <g
     inkscape:groupmode="layer"
     id="layer2"
     inkscape:label="Layer 1"
     transform="translate(-167.8714,-21.806925)">
    <path
       style="opacity:1;fill:#e87722;fill-opacity:1;stroke:#ffffff;stroke-width:16;stroke-linecap:round;stroke-linejoin:round;stroke-miterlimit:4;stroke-dasharray:none;stroke-dashoffset:0;stroke-opacity:1"
       d="m 175.87179,304.80771 0,-40.00001 c 0,0 0,-20.00001 20.00001,-20.00001 l 20,0 40,0 40.00001,0 20,0 c 0,0 20,0 20,20.00001 l 0,40.00001 z"
       id="path7795"
       inkscape:connector-curvature="0"
       sodipodi:nodetypes="ccsccccscc"
       inkscape:export-filename="G:\Lomba\FWD Hackathon 2017\Icons\Kerja\s2.png"
       inkscape:export-xdpi="59.016392"
       inkscape:export-ydpi="59.016392" />
    <path
       sodipodi:nodetypes="cscsccccscsc"
       inkscape:connector-curvature="0"
       id="path7801"
       d="m 175.87179,304.80771 0,-40 c 0,-20.00001 20.00001,-20.00001 20.00001,-20.00001 l 20,0 c 20,0 20,-20 20,-20 l 0,-20 40.00001,0 0,20 c 0,0 0,20 20,20 l 20,0 c 0,0 20,0 20,20.00001 l 0,40"
       style="opacity:1;fill:none;fill-opacity:1;stroke:#304d50;stroke-width:6;stroke-linecap:round;stroke-linejoin:round;stroke-miterlimit:4;stroke-dasharray:none;stroke-dashoffset:0;stroke-opacity:1"
       inkscape:export-filename="G:\Lomba\FWD Hackathon 2017\Icons\Kerja\s2.png"
       inkscape:export-xdpi="59.016392"
       inkscape:export-ydpi="59.016392" />
    <path
       sodipodi:nodetypes="csssccsssc"
       inkscape:connector-curvature="0"
       id="path7803"
       d="m 295.87181,164.80769 0,19.99991 c 0,22.16 -17.84,40 -40.00001,40 -22.16,0 -40,-17.84 -40,-40 l 0,-19.99991 m 0,-20 0,-39.39139 c 0,-22.159997 17.84,-40.608639 40,-40.608639 22.16001,0 40.00001,17.840002 40.00001,39.999999 l 0,40.00003"
       style="opacity:1;fill:#ffffff;fill-opacity:1;stroke:#304d50;stroke-width:6;stroke-linecap:round;stroke-linejoin:round;stroke-miterlimit:4;stroke-dasharray:none;stroke-dashoffset:0;stroke-opacity:1"
       inkscape:export-filename="G:\Lomba\FWD Hackathon 2017\Icons\Kerja\s2.png"
       inkscape:export-xdpi="59.016392"
       inkscape:export-ydpi="59.016392" />
    <path
       inkscape:connector-curvature="0"
       id="path7805"
       d="m 235.8718,164.80769 40.00001,0 -20.00001,20.00001 z"
       style="opacity:1;fill:#e87722;fill-opacity:1;stroke:#e87722;stroke-width:6;stroke-linecap:round;stroke-linejoin:round;stroke-miterlimit:4;stroke-dasharray:none;stroke-dashoffset:0;stroke-opacity:1"
       inkscape:export-filename="G:\Lomba\FWD Hackathon 2017\Icons\Kerja\s2.png"
       inkscape:export-xdpi="59.016392"
       inkscape:export-ydpi="59.016392" />
    <path
       style="opacity:1;fill:none;fill-opacity:1;stroke:#304d50;stroke-width:6;stroke-linecap:round;stroke-linejoin:round;stroke-miterlimit:4;stroke-dasharray:none;stroke-dashoffset:0;stroke-opacity:1"
       d="m 205.8718,164.80769 c -5.54,0 -10,-4.46 -10,-10 l 0,-20 c 0,-5.54 4.46,-10 10,-10 5.54,0 10,4.46 10,10"
       id="path7807"
       inkscape:connector-curvature="0"
       sodipodi:nodetypes="csssc"
       inkscape:export-filename="G:\Lomba\FWD Hackathon 2017\Icons\Kerja\s2.png"
       inkscape:export-xdpi="59.016392"
       inkscape:export-ydpi="59.016392" />
    <path
       sodipodi:nodetypes="csssc"
       inkscape:connector-curvature="0"
       id="path7809"
       d="m 305.87211,164.80769 c 5.54,0 10,-4.46 10,-10 l 0,-20 c 0,-5.54 -4.46,-10 -10,-10 -5.54,0 -10,4.46 -10,10"
       style="opacity:1;fill:none;fill-opacity:1;stroke:#304d50;stroke-width:6;stroke-linecap:round;stroke-linejoin:round;stroke-miterlimit:4;stroke-dasharray:none;stroke-dashoffset:0;stroke-opacity:1"
       inkscape:export-filename="G:\Lomba\FWD Hackathon 2017\Icons\Kerja\s2.png"
       inkscape:export-xdpi="59.016392"
       inkscape:export-ydpi="59.016392" />
    <path
       inkscape:connector-curvature="0"
       style="opacity:1;fill:#ffffff;fill-opacity:1;stroke:#304d50;stroke-width:6;stroke-linecap:round;stroke-linejoin:round;stroke-opacity:1"
       d="m 225.8718,24.806925 c -5.54,0 -10,4.460001 -10,10.000002 l 0,20.000002 0,50.000001 80.00001,0 0,-50.000001 0,-10.000001 0,-10.000001 c 0,-5.540001 -4.46,-10.000002 -10,-10.000002 -5.54,0 -10,4.460001 -10,10.000002 0,-5.540001 -4.46,-10.000002 -10.00001,-10.000002 -5.54,0 -10,4.460001 -10,10.000002 0,-5.540001 -4.46,-10.000002 -10,-10.000002 -5.54,0 -10,4.460001 -10,10.000002 0,-5.540001 -4.46,-10.000002 -10,-10.000002 z"
       id="path7849"
       inkscape:export-filename="G:\Lomba\FWD Hackathon 2017\Icons\Kerja\s2.png"
       inkscape:export-xdpi="59.016392"
       inkscape:export-ydpi="59.016392" />
    <path
       style="opacity:1;fill:#e87722;fill-opacity:1;stroke:#304d50;stroke-width:6;stroke-linecap:round;stroke-linejoin:round;stroke-opacity:1"
       d="m 235.8718,104.80767 0,20.00001 c 0,0 0,20 -20,20 l 0,-40.00001 z"
       id="path7860"
       inkscape:connector-curvature="0"
       inkscape:export-filename="G:\Lomba\FWD Hackathon 2017\Icons\Kerja\s2.png"
       inkscape:export-xdpi="59.016392"
       inkscape:export-ydpi="59.016392" />
    <path
       inkscape:connector-curvature="0"
       id="path7862"
       d="m 275.87181,104.80767 0,20.00001 c 0,0 0,20 20,20 l 0,-40.00001 z"
       style="opacity:1;fill:#e87722;fill-opacity:1;stroke:#304d50;stroke-width:6;stroke-linecap:round;stroke-linejoin:round;stroke-opacity:1"
       inkscape:export-filename="G:\Lomba\FWD Hackathon 2017\Icons\Kerja\s2.png"
       inkscape:export-xdpi="59.016392"
       inkscape:export-ydpi="59.016392" />
    <path
       style="opacity:1;fill:#ffffff;fill-opacity:1;stroke:#304d50;stroke-width:6;stroke-linecap:round;stroke-linejoin:round;stroke-opacity:1"
       d="m 315.87181,304.80696 0,-20 0,-40.00001 -20,0 0,40.00001 -80.00001,0 0,-40.00001 -20,0 0,40.00001 0,20"
       id="rect7864"
       inkscape:connector-curvature="0"
       sodipodi:nodetypes="cccccccccc"
       inkscape:export-filename="G:\Lomba\FWD Hackathon 2017\Icons\Kerja\s2.png"
       inkscape:export-xdpi="59.016392"
       inkscape:export-ydpi="59.016392" />
  </g>
</svg>
