<?xml version="1.0" encoding="UTF-8" standalone="no"?>
<!-- Created with Inkscape (http://www.inkscape.org/) -->

<svg
   xmlns:dc="http://purl.org/dc/elements/1.1/"
   xmlns:cc="http://creativecommons.org/ns#"
   xmlns:rdf="http://www.w3.org/1999/02/22-rdf-syntax-ns#"
   xmlns:svg="http://www.w3.org/2000/svg"
   xmlns="http://www.w3.org/2000/svg"
   xmlns:sodipodi="http://sodipodi.sourceforge.net/DTD/sodipodi-0.dtd"
   xmlns:inkscape="http://www.inkscape.org/namespaces/inkscape"
   width="58.137787mm"
   height="80.73967mm"
   viewBox="0 0 206.00005 286.08546"
   id="svg2"
   version="1.1"
   inkscape:version="0.91 r13725"
   sodipodi:docname="3.svg">
  <defs
     id="defs4">
    <clipPath
       clipPathUnits="userSpaceOnUse"
       id="clipPath7191">
      <path
         inkscape:connector-curvature="0"
         id="path7193"
         d="m -610,545.55947 a 30,30 0 0 0 -28.34961,20.28516 18.535015,18.535015 0 0 0 -3.11523,-0.28516 18.535015,18.535015 0 0 0 -18.53516,18.53516 18.535015,18.535015 0 0 0 0.0723,1.46484 l 78.17773,0 a 30,30 0 0 0 1.75,-10 30,30 0 0 0 -30,-30 z"
         style="opacity:1;fill:#ffffff;fill-opacity:1;stroke:#898989;stroke-width:6;stroke-linecap:round;stroke-linejoin:round;stroke-miterlimit:4;stroke-dasharray:none;stroke-dashoffset:0;stroke-opacity:1" />
    </clipPath>
    <clipPath
       clipPathUnits="userSpaceOnUse"
       id="clipPath7197">
      <path
         inkscape:connector-curvature="0"
         id="path7199"
         d="m -752.92969,604.09375 a 27.07004,27.07004 0 0 1 26.11133,20.04883 20,20 0 0 1 0.95898,-0.0488 20,20 0 0 1 20,20 l -70.82227,0 A 27.07004,27.07004 0 0 1 -780,631.16406 a 27.07004,27.07004 0 0 1 27.07031,-27.07031 z"
         style="opacity:1;fill:#ffffff;fill-opacity:1;stroke:#898989;stroke-width:6;stroke-linecap:round;stroke-linejoin:round;stroke-miterlimit:4;stroke-dasharray:none;stroke-dashoffset:0;stroke-opacity:1" />
    </clipPath>
  </defs>
  <sodipodi:namedview
     id="base"
     pagecolor="#1a1a1a"
     bordercolor="#000000"
     borderopacity="1"
     inkscape:pageopacity="0"
     inkscape:pageshadow="2"
     inkscape:zoom="0.56637383"
     inkscape:cx="108.88742"
     inkscape:cy="157.23007"
     inkscape:document-units="px"
     inkscape:current-layer="layer2"
     showgrid="true"
     inkscape:showpageshadow="true"
     borderlayer="false"
     inkscape:window-width="1366"
     inkscape:window-height="715"
     inkscape:window-x="-8"
     inkscape:window-y="-8"
     inkscape:window-maximized="1"
     showborder="false"
     inkscape:object-paths="true"
     inkscape:snap-intersection-paths="true"
     inkscape:object-nodes="true"
     inkscape:snap-smooth-nodes="true"
     fit-margin-top="0"
     fit-margin-left="0"
     fit-margin-right="0"
     fit-margin-bottom="0">
    <inkscape:grid
       type="xygrid"
       id="grid8099"
       empspacing="20"
       originx="-110.91453"
       originy="-290.88424" />
  </sodipodi:namedview>
  <metadata
     id="metadata7">
    <rdf:RDF>
      <cc:Work
         rdf:about="">
        <dc:format>image/svg+xml</dc:format>
        <dc:type
           rdf:resource="http://purl.org/dc/dcmitype/StillImage" />
        <dc:title></dc:title>
      </cc:Work>
    </rdf:RDF>
  </metadata>
  <g
     inkscape:groupmode="layer"
     id="layer2"
     inkscape:label="Layer 1"
     transform="translate(-110.91452,-167.12479)">
    <circle
       style="opacity:1;fill:#e87722;fill-opacity:1;stroke:#ffffff;stroke-width:16;stroke-linecap:round;stroke-linejoin:round;stroke-miterlimit:4;stroke-dasharray:none;stroke-dashoffset:0;stroke-opacity:1"
       id="circle7183"
       cx="213.91449"
       cy="310.16751"
       r="60.000004"
       inkscape:export-filename="G:\Lomba\FWD Hackathon 2017\Icons\Umur\s3.png"
       inkscape:export-xdpi="59.016392"
       inkscape:export-ydpi="59.016392" />
    <circle
       r="60.000004"
       cy="310.16751"
       cx="213.91449"
       id="circle4664"
       style="opacity:1;fill:none;fill-opacity:1;stroke:#304d50;stroke-width:6;stroke-linecap:round;stroke-linejoin:round;stroke-miterlimit:4;stroke-dasharray:none;stroke-dashoffset:0;stroke-opacity:1"
       inkscape:export-filename="G:\Lomba\FWD Hackathon 2017\Icons\Umur\s3.png"
       inkscape:export-xdpi="59.016392"
       inkscape:export-ydpi="59.016392" />
    <path
       style="opacity:1;fill:#ffffff;fill-opacity:1;stroke:#898989;stroke-width:6;stroke-linecap:round;stroke-linejoin:round;stroke-miterlimit:4;stroke-dasharray:none;stroke-dashoffset:0;stroke-opacity:1"
       d="m 283.91452,251.6325 a 30,30 0 0 0 -28.34961,20.28516 18.535015,18.535015 0 0 0 -3.11523,-0.28516 18.535015,18.535015 0 0 0 -18.53516,18.53516 18.535015,18.535015 0 0 0 0.0723,1.46484 l 78.17773,0 a 30,30 0 0 0 1.75,-10 30,30 0 0 0 -30,-30 z"
       id="path4823"
       inkscape:connector-curvature="0"
       inkscape:export-filename="G:\Lomba\FWD Hackathon 2017\Icons\Umur\s3.png"
       inkscape:export-xdpi="59.016392"
       inkscape:export-ydpi="59.016392" />
    <path
       style="opacity:1;fill:#ffffff;fill-opacity:1;stroke:#304d50;stroke-width:6;stroke-linecap:round;stroke-linejoin:round;stroke-miterlimit:4;stroke-dasharray:none;stroke-dashoffset:0;stroke-opacity:1"
       d="m 140.98483,310.16678 a 27.07004,27.07004 0 0 1 26.11133,20.04883 20,20 0 0 1 0.95898,-0.0488 20,20 0 0 1 20,20 l -70.82227,0 a 27.07004,27.07004 0 0 1 -3.31835,-12.92972 27.07004,27.07004 0 0 1 27.07031,-27.07031 z"
       id="path4876"
       inkscape:connector-curvature="0"
       inkscape:export-filename="G:\Lomba\FWD Hackathon 2017\Icons\Umur\s3.png"
       inkscape:export-xdpi="59.016392"
       inkscape:export-ydpi="59.016392" />
    <path
       sodipodi:nodetypes="cc"
       inkscape:connector-curvature="0"
       id="path4440-4"
       d="m 213.91452,170.16752 0,60"
       style="opacity:1;fill:#ffffff;fill-opacity:1;stroke:#e87722;stroke-width:6;stroke-linecap:round;stroke-linejoin:round;stroke-miterlimit:4;stroke-dasharray:none;stroke-dashoffset:0;stroke-opacity:1"
       inkscape:export-filename="G:\Lomba\FWD Hackathon 2017\Icons\Umur\s3.png"
       inkscape:export-xdpi="59.016392"
       inkscape:export-ydpi="59.016392" />
    <path
       sodipodi:nodetypes="cc"
       style="opacity:1;fill:#ffffff;fill-opacity:1;stroke:#e87722;stroke-width:6;stroke-linecap:round;stroke-linejoin:round;stroke-miterlimit:4;stroke-dasharray:none;stroke-dashoffset:0;stroke-opacity:1"
       d="m 213.91452,390.16752 0,60"
       id="path4442-3"
       inkscape:connector-curvature="0"
       inkscape:export-filename="G:\Lomba\FWD Hackathon 2017\Icons\Umur\s3.png"
       inkscape:export-xdpi="59.016392"
       inkscape:export-ydpi="59.016392" />
    <path
       sodipodi:nodetypes="cc"
       inkscape:connector-curvature="0"
       id="path4478-3"
       d="M 298.76734,395.02033 270.48308,366.73607"
       style="opacity:1;fill:#ffffff;fill-opacity:1;stroke:#898989;stroke-width:6;stroke-linecap:round;stroke-linejoin:round;stroke-miterlimit:4;stroke-dasharray:none;stroke-dashoffset:0;stroke-opacity:1"
       inkscape:export-filename="G:\Lomba\FWD Hackathon 2017\Icons\Umur\s3.png"
       inkscape:export-xdpi="59.016392"
       inkscape:export-ydpi="59.016392" />
    <path
       sodipodi:nodetypes="cc"
       style="opacity:1;fill:#ffffff;fill-opacity:1;stroke:#898989;stroke-width:6;stroke-linecap:round;stroke-linejoin:round;stroke-miterlimit:4;stroke-dasharray:none;stroke-dashoffset:0;stroke-opacity:1"
       d="M 157.34596,253.59897 129.0617,225.31471"
       id="path4480-8"
       inkscape:connector-curvature="0"
       inkscape:export-filename="G:\Lomba\FWD Hackathon 2017\Icons\Umur\s3.png"
       inkscape:export-xdpi="59.016392"
       inkscape:export-ydpi="59.016392" />
    <path
       sodipodi:nodetypes="cc"
       inkscape:connector-curvature="0"
       id="path4500-3"
       d="m 300.51705,360.16752 -17.3205,-9.99999"
       style="opacity:1;fill:#ffffff;fill-opacity:1;stroke:#a8a7a7;stroke-width:6;stroke-linecap:round;stroke-linejoin:round;stroke-miterlimit:4;stroke-dasharray:none;stroke-dashoffset:0;stroke-opacity:1"
       inkscape:export-filename="G:\Lomba\FWD Hackathon 2017\Icons\Umur\s3.png"
       inkscape:export-xdpi="59.016392"
       inkscape:export-ydpi="59.016392" />
    <path
       sodipodi:nodetypes="cc"
       style="opacity:1;fill:#ffffff;fill-opacity:1;stroke:#a8a7a7;stroke-width:6;stroke-linecap:round;stroke-linejoin:round;stroke-miterlimit:4;stroke-dasharray:none;stroke-dashoffset:0;stroke-opacity:1"
       d="m 144.63247,270.16753 -17.3205,-9.99999"
       id="path4502-2"
       inkscape:connector-curvature="0"
       inkscape:export-filename="G:\Lomba\FWD Hackathon 2017\Icons\Umur\s3.png"
       inkscape:export-xdpi="59.016392"
       inkscape:export-ydpi="59.016392" />
    <circle
       transform="translate(893.9145,-293.92697)"
       style="opacity:1;fill:#a8a7a7;fill-opacity:1;stroke:none;stroke-width:16;stroke-linecap:round;stroke-linejoin:round;stroke-miterlimit:4;stroke-dasharray:none;stroke-dashoffset:0;stroke-opacity:1"
       id="path7185"
       cx="-760"
       cy="644.09448"
       r="20"
       clip-path="url(#clipPath7197)"
       inkscape:export-filename="G:\Lomba\FWD Hackathon 2017\Icons\Umur\s3.png"
       inkscape:export-xdpi="59.016392"
       inkscape:export-ydpi="59.016392" />
    <circle
       transform="translate(893.9145,-293.92697)"
       style="opacity:1;fill:#a8a7a7;fill-opacity:1;stroke:none"
       id="path7187"
       cx="-600"
       cy="584.09448"
       r="20"
       clip-path="url(#clipPath7191)"
       inkscape:export-filename="G:\Lomba\FWD Hackathon 2017\Icons\Umur\s3.png"
       inkscape:export-xdpi="59.016392"
       inkscape:export-ydpi="59.016392" />
    <path
       inkscape:connector-curvature="0"
       id="path7201"
       d="m 283.91452,251.6325 a 30,30 0 0 0 -28.34961,20.28516 18.535015,18.535015 0 0 0 -3.11523,-0.28516 18.535015,18.535015 0 0 0 -18.53516,18.53516 18.535015,18.535015 0 0 0 0.0723,1.46484 l 78.17773,0 a 30,30 0 0 0 1.75,-10 30,30 0 0 0 -30,-30 z"
       style="opacity:1;fill:none;fill-opacity:1;stroke:#304d50;stroke-width:6;stroke-linecap:round;stroke-linejoin:round;stroke-miterlimit:4;stroke-dasharray:none;stroke-dashoffset:0;stroke-opacity:1"
       inkscape:export-filename="G:\Lomba\FWD Hackathon 2017\Icons\Umur\s3.png"
       inkscape:export-xdpi="59.016392"
       inkscape:export-ydpi="59.016392" />
    <path
       inkscape:connector-curvature="0"
       id="path7203"
       d="m 140.98483,310.16678 a 27.07004,27.07004 0 0 1 26.11133,20.04883 20,20 0 0 1 0.95898,-0.0488 20,20 0 0 1 20,20 l -70.82227,0 a 27.07004,27.07004 0 0 1 -3.31835,-12.92972 27.07004,27.07004 0 0 1 27.07031,-27.07031 z"
       style="opacity:1;fill:none;fill-opacity:1;stroke:#304d50;stroke-width:6;stroke-linecap:round;stroke-linejoin:round;stroke-miterlimit:4;stroke-dasharray:none;stroke-dashoffset:0;stroke-opacity:1"
       inkscape:export-filename="G:\Lomba\FWD Hackathon 2017\Icons\Umur\s3.png"
       inkscape:export-xdpi="59.016392"
       inkscape:export-ydpi="59.016392" />
  </g>
</svg>
