<?xml version="1.0" encoding="UTF-8" standalone="no"?>
<!-- Created with Inkscape (http://www.inkscape.org/) -->

<svg
   xmlns:dc="http://purl.org/dc/elements/1.1/"
   xmlns:cc="http://creativecommons.org/ns#"
   xmlns:rdf="http://www.w3.org/1999/02/22-rdf-syntax-ns#"
   xmlns:svg="http://www.w3.org/2000/svg"
   xmlns="http://www.w3.org/2000/svg"
   xmlns:sodipodi="http://sodipodi.sourceforge.net/DTD/sodipodi-0.dtd"
   xmlns:inkscape="http://www.inkscape.org/namespaces/inkscape"
   width="190.83382mm"
   height="202.1227mm"
   viewBox="0 0 676.18281 716.18277"
   id="svg2"
   version="1.1"
   inkscape:version="0.91 r13725"
   sodipodi:docname="logosimpanmapan.svg">
  <defs
     id="defs4" />
  <sodipodi:namedview
     id="base"
     pagecolor="#1a1a1a"
     bordercolor="#000000"
     borderopacity="1"
     inkscape:pageopacity="0"
     inkscape:pageshadow="2"
     inkscape:zoom="0.20024339"
     inkscape:cx="130.34946"
     inkscape:cy="170.61657"
     inkscape:document-units="px"
     inkscape:current-layer="layer2"
     showgrid="true"
     inkscape:showpageshadow="true"
     borderlayer="false"
     inkscape:window-width="1366"
     inkscape:window-height="715"
     inkscape:window-x="-8"
     inkscape:window-y="-8"
     inkscape:window-maximized="1"
     showborder="false"
     inkscape:object-paths="true"
     inkscape:snap-intersection-paths="true"
     inkscape:object-nodes="true"
     inkscape:snap-smooth-nodes="true"
     fit-margin-top="0"
     fit-margin-left="0"
     fit-margin-right="0"
     fit-margin-bottom="0">
    <inkscape:grid
       type="xygrid"
       id="grid8099"
       empspacing="20"
       originx="108.0808"
       originy="-91.897999" />
  </sodipodi:namedview>
  <metadata
     id="metadata7">
    <rdf:RDF>
      <cc:Work
         rdf:about="">
        <dc:format>image/svg+xml</dc:format>
        <dc:type
           rdf:resource="http://purl.org/dc/dcmitype/StillImage" />
        <dc:title></dc:title>
      </cc:Work>
    </rdf:RDF>
  </metadata>
  <g
     inkscape:groupmode="layer"
     id="layer2"
     inkscape:label="Layer 1"
     transform="translate(108.0808,63.986312)">
    <g
       transform="translate(3620,-320)"
       id="g13242">
      <path
         style="opacity:1;fill:none;fill-opacity:1;stroke:#304d50;stroke-width:16;stroke-linecap:round;stroke-linejoin:round;stroke-opacity:1"
         d="m -3140,784.09449 0,59.99999 -440,0 0,-59.99999 m 0,-320 0,-60.00001 360,1e-5"
         id="path12286"
         inkscape:connector-curvature="0"
         sodipodi:nodetypes="ccccccc" />
      <path
         style="opacity:1;fill:none;fill-opacity:1;stroke:#304d50;stroke-width:16;stroke-linecap:round;stroke-linejoin:round;stroke-opacity:1"
         d="m -3140,364.09449 0,80"
         id="path12288"
         inkscape:connector-curvature="0" />
      <path
         style="opacity:1;fill:none;fill-opacity:1;stroke:#304d50;stroke-width:16;stroke-linecap:round;stroke-linejoin:round;stroke-opacity:1"
         d="m -3180,404.09449 80,0"
         id="path12290"
         inkscape:connector-curvature="0" />
      <path
         style="opacity:1;fill:#304d50;fill-opacity:1;stroke:#e87722;stroke-width:16;stroke-linecap:round;stroke-linejoin:round;stroke-opacity:1"
         d="m -3600,384.09449 -120,-120"
         id="path12294"
         inkscape:connector-curvature="0" />
      <path
         style="opacity:1;fill:#304d50;fill-opacity:1;stroke:#898989;stroke-width:16;stroke-linecap:round;stroke-linejoin:round;stroke-opacity:1"
         d="m -3580,364.09449 -40,-60"
         id="path12296"
         inkscape:connector-curvature="0" />
      <path
         style="opacity:1;fill:#304d50;fill-opacity:1;stroke:#a8a7a7;stroke-width:16;stroke-linecap:round;stroke-linejoin:round;stroke-opacity:1"
         d="m -3120,884.09449 40,80"
         id="path12306"
         inkscape:connector-curvature="0" />
      <path
         style="opacity:1;fill:#304d50;fill-opacity:1;stroke:#e87722;stroke-width:16;stroke-linecap:round;stroke-linejoin:round;stroke-opacity:1"
         d="m -3100,864.09449 40,20"
         id="path12308"
         inkscape:connector-curvature="0" />
      <circle
         style="opacity:1;fill:none;fill-opacity:1;stroke:#e87722;stroke-width:16;stroke-linecap:round;stroke-linejoin:round;stroke-opacity:1"
         id="circle12310"
         cx="-3200"
         cy="344.09448"
         r="20" />
      <path
         style="opacity:1;fill:none;fill-opacity:1;stroke:#a8a7a7;stroke-width:16;stroke-linecap:round;stroke-linejoin:round;stroke-opacity:1"
         d="m -3100,364.09449 40,-40"
         id="path12312"
         inkscape:connector-curvature="0" />
      <g
         transform="matrix(0.92962245,0,0,0.92962245,320.96518,-6.9585258)"
         id="g13207">
        <path
           inkscape:connector-curvature="0"
           id="path13182"
           style="font-style:normal;font-variant:normal;font-weight:900;font-stretch:normal;font-size:medium;line-height:125%;font-family:Reef;-inkscape-font-specification:'Reef Heavy';letter-spacing:0px;word-spacing:0px;fill:#304d50;fill-opacity:1;stroke:none;stroke-width:1px;stroke-linecap:butt;stroke-linejoin:miter;stroke-opacity:1"
           d="m -4168.1738,583.00422 q -7.364,0 -12.5463,-5.09128 -5.273,-5.09128 -5.273,-12.45545 l 0,-2.81839 q 0,-7.45508 5.1823,-12.63727 5.091,-5.2731 12.4555,-5.2731 l 0.5456,0 q 5.7273,0 10.3641,3.45481 4.5459,3.36385 6.3641,8.72791 1.9094,5.72765 8.0008,5.72765 l 0.089,0 q 4.3639,0 6.9097,-3.54567 2.6365,-3.63663 1.2726,-7.81877 -3.5456,-10.54624 -12.5463,-17.18309 -9.0914,-6.72775 -20.4559,-6.72775 l -0.5455,0 q -14.4558,0 -24.6383,10.27347 -10.2734,10.36438 -10.2734,25.00181 l 0,2.54566 q 0,14.63743 10.3641,24.81999 10.2738,10.18256 25.0019,10.45529 10.2738,0.27277 16.5467,8.54608 6.4549,8.45518 3.7276,19.09229 -1.9094,7.00053 -7.8188,11.4554 -5.8186,4.36395 -13.1826,4.36395 l -0.3631,0 q -7.2732,0 -13.0006,-4.45486 -5.6371,-4.36396 -7.6368,-11.18262 -1.7274,-6.09138 -8.1828,-6.09138 -4.364,0 -6.9093,3.54572 -2.5457,3.54572 -1.2731,7.81876 3.6369,12.18272 13.7282,19.91052 10.3646,7.90968 23.2744,7.90968 l 0.093,0 q 13.9102,0 24.7291,-8.637 10.9096,-8.72791 13.6374,-22.27432 3.8184,-18.63774 -7.91,-33.09335 -11.546,-14.27374 -29.7294,-14.36469 z" />
        <path
           inkscape:connector-curvature="0"
           id="path13184"
           style="font-style:normal;font-variant:normal;font-weight:900;font-stretch:normal;font-size:medium;line-height:125%;font-family:Reef;-inkscape-font-specification:'Reef Heavy';letter-spacing:0px;word-spacing:0px;fill:#304d50;fill-opacity:1;stroke:none;stroke-width:1px;stroke-linecap:butt;stroke-linejoin:miter;stroke-opacity:1"
           d="m -4104.3506,661.37358 q -3.5461,0 -6.0914,-2.45471 -2.455,-2.54566 -2.455,-6.09138 l 0,-116.91758 q 0,-3.54572 2.455,-6.00047 2.5453,-2.45471 6.0914,-2.45471 3.4548,0 6.0001,2.45471 2.455,2.45475 2.455,6.00047 l 0,116.91758 q 0,3.54572 -2.455,6.09138 -2.5453,2.45471 -6.0001,2.45471 z" />
        <path
           inkscape:connector-curvature="0"
           id="path13186"
           style="font-style:normal;font-variant:normal;font-weight:900;font-stretch:normal;font-size:medium;line-height:125%;font-family:Reef;-inkscape-font-specification:'Reef Heavy';letter-spacing:0px;word-spacing:0px;fill:#304d50;fill-opacity:1;stroke:none;stroke-width:1px;stroke-linecap:butt;stroke-linejoin:miter;stroke-opacity:1"
           d="m -3985.6148,527.81842 q -3.8184,0 -6.3641,3.00021 -0.2747,0.27278 -0.6363,0.72733 0.088,-0.0908 -0.1816,0.27277 -0.3631,0.72733 -0.3631,0.63642 l -33.3662,65.09563 -33.1842,-65.09563 q -0.093,-0.0908 -0.093,-0.0908 -0.093,-0.0908 -0.093,-0.18201 -2.4545,-4.36395 -7.364,-4.36395 -3.5456,0 -6.0914,2.54562 -2.4545,2.4547 -2.4545,6.00042 l 0,116.46303 q 0,3.54572 2.4545,6.09138 2.5458,2.45471 6.0914,2.45471 3.4548,0 6.0006,-2.45471 2.4545,-2.54566 2.4545,-6.09138 l 0,-81.0968 24.7291,48.4581 q 1.6367,3.18203 4.9095,4.18208 3.3641,1.09102 6.5462,-0.45478 1.5454,-0.81823 2.6365,-2.36384 0.5455,-0.54546 0.9999,-1.3637 l 24.911,-48.63991 0,81.27862 q 0,3.54571 2.4546,6.09138 2.5457,2.4547 6.0006,2.4547 3.5456,0 6.0914,-2.4547 2.4545,-2.54567 2.4545,-6.09138 l 0,-116.46303 q 0,-3.54572 -2.4545,-6.00043 -2.5458,-2.54561 -6.0914,-2.54561 z" />
        <path
           inkscape:connector-curvature="0"
           id="path13188"
           style="font-style:normal;font-variant:normal;font-weight:900;font-stretch:normal;font-size:medium;line-height:125%;font-family:Reef;-inkscape-font-specification:'Reef Heavy';letter-spacing:0px;word-spacing:0px;fill:#304d50;fill-opacity:1;stroke:none;stroke-width:1px;stroke-linecap:butt;stroke-linejoin:miter;stroke-opacity:1"
           d="m -3903.0632,563.82102 q 0,7.27326 -5.1823,12.36454 -5.0915,5.09128 -12.2735,5.09128 l -19.3652,0 0,-35.36623 19.3652,0 q 7.182,0 12.2735,5.09128 5.1823,5.09128 5.1823,12.27362 l 0,0.54551 z m -45.2762,-34.91164 q -3.5456,0 -6.0914,2.45471 -2.4545,2.45475 -2.4545,6.00047 l 0,115.46293 q 0,3.54572 2.4545,6.09138 2.5458,2.45471 6.0914,2.45471 3.4549,0 6.0006,-2.45471 2.4546,-2.54566 2.4546,-6.09138 l 0,-54.54943 19.3652,0 q 14.2737,0 24.3651,-10.09161 10.0918,-10.09165 10.0918,-24.36543 l 0,-0.54551 q 0,-14.18283 -10.0918,-24.27448 -10.0914,-10.09165 -24.3651,-10.09165 l -27.8204,0 z" />
        <path
           style="font-style:normal;font-variant:normal;font-weight:900;font-stretch:normal;font-size:medium;line-height:125%;font-family:Reef;-inkscape-font-specification:'Reef Heavy';letter-spacing:0px;word-spacing:0px;fill:#304d50;fill-opacity:1;stroke:none;stroke-width:1px;stroke-linecap:butt;stroke-linejoin:miter;stroke-opacity:1"
           d="m -3843.6091,527.45841 c -0.9696,0 -2.0607,0.0304 -3.2729,0.0909 l -0.6363,0.091 c -0.9091,0.1213 -1.7879,0.27273 -2.6365,0.45455 -0.059,0 -0.1806,0.0304 -0.364,0.0909 l -0.2728,0 c -0.9696,0.24238 -1.9095,0.4848 -2.8181,0.72732 -0.121,0.0605 -0.2109,0.0909 -0.2728,0.0909 -11.1526,3.45481 -18.6074,10.72807 -22.3653,21.81977 0.121,-0.30284 0.092,-0.15147 -0.091,0.4546 -1.0911,3.45481 -1.6366,6.97022 -1.6366,10.54625 l 0,91.00662 c 0,2.3638 0.8183,4.39421 2.4545,6.09134 1.6972,1.63647 3.7276,2.4547 6.0914,2.4547 2.3032,0 4.3034,-0.81823 6.0006,-2.4547 1.6362,-1.69713 2.4545,-3.72754 2.4545,-6.09134 l 0,-54.54943 0.01,0 0,-17.00127 -0.01,0 0,-19.45592 c 0,-2.30319 0.4636,-4.51548 1.3732,-6.63689 0.059,-0.18182 0.081,-0.24234 0.081,-0.18182 0.606,-1.51526 1.4244,-2.90926 2.455,-4.18214 0.062,0 0.1228,-0.0304 0.182,-0.0909 0,-0.0605 0.029,-0.12098 0.091,-0.18182 0.5451,-0.60611 1.1512,-1.21218 1.8182,-1.81829 0.304,-0.30322 0.486,-0.45459 0.5456,-0.45459 0.3635,-0.30318 0.7275,-0.57595 1.0911,-0.81824 0.304,-0.24238 0.6978,-0.48481 1.1819,-0.72732 0.3039,-0.18187 0.7285,-0.39399 1.2726,-0.63642 0.3636,-0.18187 0.7578,-0.36369 1.1819,-0.54551 l 0.9091,-0.27273 c 0.667,-0.24238 1.3643,-0.4242 2.0914,-0.5455 0.1211,0 0.3631,-0.0304 0.7271,-0.0909 0.8486,-0.12136 1.606,-0.18182 2.273,-0.18182 l 0.8183,0 c 0.6666,0 1.4244,0.0605 2.2725,0.18182 0.3641,0.0605 0.6061,0.0909 0.7276,0.0909 0.7271,0.12135 1.4239,0.30317 2.091,0.5455 0.059,0 0.3319,0.0909 0.8183,0.27273 l 1.2726,0.54551 c 0.4851,0.24238 0.9096,0.4545 1.2732,0.63642 0.4245,0.24237 0.8178,0.4848 1.1818,0.72732 0.3631,0.24238 0.7271,0.51511 1.0911,0.81824 0.1211,0.12135 0.3026,0.27273 0.5451,0.45459 0.6671,0.60611 1.2731,1.21218 1.8187,1.81829 0.1829,0.24238 0.2439,0.33325 0.1815,0.27273 1.0306,1.27288 1.8787,2.66688 2.5458,4.18214 l 0.1001,0.18182 c 0.9091,2.12141 1.3638,4.3337 1.3638,6.63689 l 0,19.45592 -0.01,0 0,17.00127 0,17.13761 0,37.41182 c 0,2.3638 0.8184,4.39421 2.4546,6.09134 1.6366,1.63647 3.6368,2.4547 6.0006,2.4547 2.3637,0 4.3639,-0.81823 6.0006,-2.4547 1.6972,-1.69713 2.5453,-3.72754 2.5453,-6.09134 l 0,-91.00662 c 0,-3.57603 -0.5754,-7.09144 -1.727,-10.54625 l 0,-0.18182 c 0,-0.12135 -0.029,-0.21222 -0.091,-0.27278 -3.7574,-11.0917 -11.2127,-18.36496 -22.3653,-21.81977 -0.062,0 -0.1229,-0.0304 -0.1816,-0.0909 -0.9091,-0.24233 -1.8489,-0.4848 -2.8185,-0.72732 l -0.3636,0 c -0.121,-0.0605 -0.2108,-0.0909 -0.2727,-0.0909 -0.8486,-0.18182 -1.7279,-0.33325 -2.6366,-0.45455 l -0.7275,-0.091 c -1.1516,-0.0605 -2.212,-0.0909 -3.1821,-0.0909 l -0.6363,0 z"
           id="path13190"
           inkscape:connector-curvature="0" />
        <path
           inkscape:connector-curvature="0"
           id="path13192"
           style="font-style:normal;font-variant:normal;font-weight:900;font-stretch:normal;font-size:medium;line-height:125%;font-family:Reef;-inkscape-font-specification:'Reef Heavy';letter-spacing:0px;word-spacing:0px;fill:#304d50;fill-opacity:1;stroke:none;stroke-width:1px;stroke-linecap:butt;stroke-linejoin:miter;stroke-opacity:1"
           d="m -3713.2314,653.28208 q 0.093,-0.72732 0.093,-0.45478 l 0,-116.91757 q 0,-3.54572 -2.5453,-6.00048 -2.455,-2.54561 -6.0006,-2.54561 -3.5456,0 -6.0006,2.54561 -2.4545,2.45476 -2.4545,6.00048 l 0,80.82406 -42.2757,-84.73347 q -0.093,0 -0.093,-0.18201 -0.093,-0.0908 -0.1815,-0.0908 -0.2747,-0.63641 -0.6368,-1.00005 l 0,0 0,-0.0908 q -2.6365,-3.27294 -6.6365,-3.27294 -3.5461,0 -6.0914,2.54561 -2.455,2.45476 -2.455,6.00047 l 0,116.91758 q 0,3.54572 2.455,6.00047 2.5453,2.54562 6.0914,2.54562 3.4549,0 6.0002,-2.54562 2.4549,-2.45475 2.4549,-6.00047 l 0,-80.82406 42.2757,84.73347 q 1.6367,3.09112 5.0003,4.18213 3.2728,1.09097 6.4549,-0.5455 3.6369,-1.81834 4.4552,-5.90952 0,0 0,-0.18201 0.088,-0.45478 0.088,-1.00005 z" />
        <path
           inkscape:connector-curvature="0"
           id="path13151"
           style="font-style:normal;font-variant:normal;font-weight:900;font-stretch:normal;font-size:medium;line-height:125%;font-family:Reef;-inkscape-font-specification:'Reef Heavy';letter-spacing:0px;word-spacing:0px;fill:#304d50;fill-opacity:1;stroke:none;stroke-width:1px;stroke-linecap:butt;stroke-linejoin:miter;stroke-opacity:1"
           d="m -4103.5481,686.12057 q -4.1219,0 -6.8697,3.23864 -0.2933,0.29465 -0.6871,0.78514 0.098,-0.0982 -0.1955,0.29465 -0.391,0.78514 -0.391,0.68702 l -36.0176,70.26902 -35.8217,-70.26902 q -0.098,-0.0982 -0.098,-0.0982 -0.098,-0.0982 -0.098,-0.19644 -2.6496,-4.71079 -7.9491,-4.71079 -3.8278,0 -6.5755,2.74797 -2.6501,2.64979 -2.6501,6.47732 l 0,125.71875 q 0,3.82748 2.6501,6.57544 2.7477,2.64984 6.5755,2.64984 3.729,0 6.4772,-2.64984 2.6496,-2.74796 2.6496,-6.57544 l 0,-87.54186 26.6944,52.30918 q 1.7665,3.43498 5.2995,4.51449 3.6313,1.17773 7.0666,-0.49067 1.6683,-0.88326 2.846,-2.55167 0.5889,-0.58884 1.0795,-1.47215 l 26.8908,-52.50547 0,87.73815 q 0,3.82748 2.6496,6.57544 2.7482,2.64984 6.4772,2.64984 3.8277,0 6.5755,-2.64984 2.65,-2.74796 2.65,-6.57544 l 0,-125.71875 q 0,-3.82753 -2.65,-6.47732 -2.7478,-2.74797 -6.5755,-2.74797 z" />
        <path
           style="font-style:normal;font-variant:normal;font-weight:900;font-stretch:normal;font-size:medium;line-height:125%;font-family:Reef;-inkscape-font-specification:'Reef Heavy';letter-spacing:0px;word-spacing:0px;fill:#304d50;fill-opacity:1;stroke:none;stroke-width:1px;stroke-linecap:butt;stroke-linejoin:miter;stroke-opacity:1"
           d="m -4035.4323,685.72449 c -1.0469,0 -2.2278,0.0345 -3.5363,0.10003 l -0.6819,0.1 c -0.9817,0.13099 -1.9295,0.29475 -2.8456,0.49095 -0.065,0 -0.1955,0.0345 -0.391,0.10003 l -0.3002,0 c -1.0469,0.26161 -2.0551,0.52005 -3.0364,0.78184 -0.1303,0.0655 -0.2351,0.10003 -0.3002,0.10003 -12.0385,3.72936 -20.0817,11.58303 -24.1379,23.55628 0.1303,-0.32715 0.095,-0.16334 -0.1001,0.4909 -1.1777,3.7294 -1.7638,7.52244 -1.7638,11.38269 l 0,98.2344 c 0,2.55167 0.8789,4.75036 2.6454,6.58233 1.8322,1.76653 4.0311,2.64561 6.5825,2.64561 2.4862,0 4.6409,-0.87908 6.4731,-2.64561 1.7665,-1.83197 2.6458,-4.03066 2.6458,-6.58233 l -0.018,0 0,-98.2344 0.018,0 c 0,-2.48627 0.4823,-4.87418 1.4635,-7.1642 0.065,-0.19611 0.1001,-0.26514 0.1001,-0.19997 0.6545,-1.63573 1.5426,-3.13549 2.6547,-4.50942 0.065,0 0.1261,-0.0345 0.1913,-0.10003 0,-0.0655 0.034,-0.13453 0.1,-0.20003 0.5888,-0.65429 1.2442,-1.30951 1.9639,-1.96375 0.3272,-0.32715 0.5255,-0.49095 0.5912,-0.49095 0.3924,-0.32715 0.7801,-0.62017 1.1725,-0.88187 0.3273,-0.2616 0.7495,-0.52009 1.2731,-0.78188 0.3268,-0.19644 0.7928,-0.42941 1.3816,-0.69097 0.3929,-0.19611 0.8151,-0.3945 1.2731,-0.59094 l 0.9817,-0.29093 c 0.7197,-0.2616 1.4696,-0.46 2.2549,-0.59098 0.1303,0 0.3975,-0.0254 0.7908,-0.0909 0.9161,-0.13095 1.7261,-0.20002 2.4457,-0.20002 l 0.8909,0 c 0.7197,0 1.5296,0.0691 2.4457,0.20002 0.3924,0.0655 0.6601,0.0909 0.7909,0.0909 0.7853,0.13098 1.5352,0.32938 2.2548,0.59098 0.065,0 0.3584,0.0945 0.8816,0.29093 0.4581,0.19644 0.9152,0.39483 1.3732,0.59094 0.5232,0.2616 0.9804,0.49458 1.3728,0.69097 0.458,0.2616 0.889,0.52004 1.2819,0.78188 0.3924,0.2616 0.7802,0.55463 1.1726,0.88187 0.1303,0.13094 0.3286,0.29475 0.5912,0.49095 0.7196,0.65424 1.375,1.30946 1.9639,1.96375 0.1955,0.26161 0.256,0.36523 0.1908,0.30006 1.1121,1.37393 2.0351,2.87369 2.7548,4.50942 l 0.091,0.19997 c 0.9817,2.29002 1.4728,4.67793 1.4728,7.1642 l 0,21.00153 0,18.34676 0.018,0 0,58.88611 c 0,2.55167 0.8793,4.75031 2.6458,6.58233 1.7666,1.76653 3.9306,2.64561 6.4824,2.64561 2.5514,0 4.7061,-0.87908 6.4731,-2.64561 1.8317,-1.83197 2.7455,-4.03066 2.7455,-6.58233 l 0,-98.2344 c 0,-3.86025 -0.6205,-7.65329 -1.8639,-11.38269 l 0,-0.19997 -0.01,0 c 0,-0.13099 -0.035,-0.22548 -0.1001,-0.29093 -4.0567,-11.97325 -12.0999,-19.82692 -24.1384,-23.55628 -0.065,0 -0.1345,-0.0345 -0.1996,-0.10003 -0.9813,-0.26161 -1.9895,-0.52005 -3.0369,-0.78184 l -0.391,0 c -0.1303,-0.0655 -0.2258,-0.10003 -0.2909,-0.10003 -0.9157,-0.19644 -1.8639,-0.36024 -2.8456,-0.49095 l -0.7908,-0.1 c -1.2434,-0.0655 -2.3899,-0.10003 -3.4367,-0.10003 l -0.682,0 z"
           id="path13153"
           inkscape:connector-curvature="0" />
        <path
           inkscape:connector-curvature="0"
           id="path13155"
           style="font-style:normal;font-variant:normal;font-weight:900;font-stretch:normal;font-size:medium;line-height:125%;font-family:Reef;-inkscape-font-specification:'Reef Heavy';letter-spacing:0px;word-spacing:0px;fill:#304d50;fill-opacity:1;stroke:none;stroke-width:1px;stroke-linecap:butt;stroke-linejoin:miter;stroke-opacity:1"
           d="m -3917.8652,724.98444 q 0,7.8513 -5.5938,13.34723 -5.496,5.49588 -13.2492,5.49588 l -20.9042,0 0,-38.1769 20.9042,0 q 7.7532,0 13.2492,5.49589 5.5938,5.49593 5.5938,13.24906 l 0,0.58884 z m -48.874,-37.68618 q -3.8277,0 -6.5755,2.64984 -2.65,2.64979 -2.65,6.47727 l 0,124.63924 q 0,3.82748 2.65,6.57544 2.7478,2.64984 6.5755,2.64984 3.7295,0 6.4773,-2.64984 2.6495,-2.74796 2.6495,-6.57544 l 0,-58.88466 20.9042,0 q 15.4081,0 26.3019,-10.89369 10.8939,-10.89364 10.8939,-26.30182 l 0,-0.58884 q 0,-15.31001 -10.8939,-26.20365 -10.8938,-10.89369 -26.3019,-10.89369 l -30.031,0 z" />
        <path
           style="font-style:normal;font-variant:normal;font-weight:900;font-stretch:normal;font-size:medium;line-height:125%;font-family:Reef;-inkscape-font-specification:'Reef Heavy';letter-spacing:0px;word-spacing:0px;fill:#304d50;fill-opacity:1;stroke:none;stroke-width:1px;stroke-linecap:butt;stroke-linejoin:miter;stroke-opacity:1"
           d="m -3853.6735,685.72449 c -1.0468,0 -2.2278,0.0345 -3.5367,0.10003 l -0.6815,0.1 c -0.9817,0.13099 -1.9388,0.29475 -2.8549,0.49095 -0.065,0 -0.1955,0.0345 -0.391,0.10003 l -0.2909,0 c -1.0469,0.26161 -2.0556,0.52005 -3.0368,0.78184 -0.1304,0.0655 -0.2346,0.10003 -0.2998,0.10003 -12.0385,3.72936 -20.0817,11.58303 -24.1384,23.55628 0.1304,-0.32715 0.096,-0.16334 -0.1,0.4909 -1.1777,3.7294 -1.7637,7.52244 -1.7637,11.38269 l 0,98.2344 c 0,2.55167 0.8788,4.75031 2.6453,6.58233 1.8322,1.76653 4.0219,2.64561 6.5732,2.64561 2.4866,0 4.6507,-0.87908 6.4824,-2.64561 1.7665,-1.83197 2.6458,-4.03066 2.6458,-6.58233 l 0,-58.88611 0,-18.34676 -0.01,0 0,-21.00153 c 0,-2.48627 0.4916,-4.87418 1.4728,-7.1642 0.065,-0.19611 0.1001,-0.26514 0.1001,-0.19997 0.6545,-1.63573 1.5426,-3.13549 2.6547,-4.50942 0.065,0 0.1257,-0.0345 0.1908,-0.10003 0,-0.0655 0.035,-0.13453 0.1001,-0.20003 0.5889,-0.65429 1.2443,-1.30951 1.9639,-1.96375 0.3272,-0.32715 0.5162,-0.49095 0.5819,-0.49095 0.3924,-0.32715 0.7894,-0.62017 1.1818,-0.88187 0.3273,-0.2616 0.7495,-0.52009 1.2727,-0.78188 0.3272,-0.19644 0.7839,-0.42941 1.3732,-0.69097 0.3924,-0.19611 0.8239,-0.3945 1.2815,-0.59094 l 0.9822,-0.29093 c 0.7196,-0.2616 1.4695,-0.46 2.2548,-0.59098 0.1303,0 0.3887,-0.0254 0.7815,-0.0909 0.9161,-0.13095 1.7349,-0.20002 2.455,-0.20002 l 0.8817,0 c 0.7196,0 1.5389,0.0691 2.4549,0.20002 0.3924,0.0655 0.6601,0.0909 0.7909,0.0909 0.7853,0.13098 1.5352,0.32938 2.2548,0.59098 0.065,0 0.358,0.0945 0.8817,0.29093 0.458,0.19644 0.9147,0.39483 1.3727,0.59094 0.5237,0.2616 0.9803,0.49458 1.3732,0.69097 0.458,0.2616 0.8891,0.52004 1.2815,0.78188 0.3928,0.2616 0.7806,0.55463 1.173,0.88187 0.1303,0.13094 0.3286,0.29475 0.5912,0.49095 0.7196,0.65424 1.375,1.30946 1.9634,1.96375 0.1955,0.26161 0.256,0.36523 0.1909,0.30006 1.1125,1.37393 2.0351,2.87369 2.7547,4.50942 l 0.091,0.19997 c 0.9812,2.29002 1.4728,4.67793 1.4728,7.1642 l 0.018,0 0,39.34829 0,58.88611 c 0,2.55167 0.8793,4.75031 2.6454,6.58233 1.767,1.76653 3.9217,2.64561 6.4735,2.64561 2.5518,0 4.7159,-0.87908 6.482,-2.64561 1.8326,-1.83202 2.7459,-4.03066 2.7459,-6.58233 l 0,-98.2344 c 0,-3.86025 -0.6205,-7.65329 -1.8638,-11.38269 l 0,-0.19997 -0.01,0 c 0,-0.13099 -0.035,-0.22548 -0.1001,-0.29093 -4.0567,-11.97325 -12.0999,-19.82692 -24.1383,-23.55628 -0.065,0 -0.1346,-0.0345 -0.1997,-0.10003 -0.9813,-0.26161 -1.99,-0.52005 -3.0369,-0.78184 l -0.391,0 c -0.1303,-0.0655 -0.2346,-0.10003 -0.2998,-0.10003 -0.916,-0.19644 -1.8642,-0.36024 -2.846,-0.49095 l -0.7815,-0.1 c -1.2429,-0.0655 -2.3898,-0.10003 -3.4367,-0.10003 l -0.682,0 z"
           id="path13157"
           inkscape:connector-curvature="0" />
        <path
           inkscape:connector-curvature="0"
           id="path13159"
           style="font-style:normal;font-variant:normal;font-weight:900;font-stretch:normal;font-size:medium;line-height:125%;font-family:Reef;-inkscape-font-specification:'Reef Heavy';letter-spacing:0px;word-spacing:0px;fill:#304d50;fill-opacity:1;stroke:none;stroke-width:1px;stroke-linecap:butt;stroke-linejoin:miter;stroke-opacity:1"
           d="m -3712.9465,821.55533 q 0.098,-0.78514 0.098,-0.49072 l 0,-126.20947 q 0,-3.82753 -2.7477,-6.47732 -2.6501,-2.74796 -6.4773,-2.74796 -3.8277,0 -6.4773,2.74796 -2.65,2.64979 -2.65,6.47732 l 0,87.24743 -45.6356,-91.4675 q -0.098,0 -0.098,-0.19644 -0.098,-0.0982 -0.1955,-0.0982 -0.2933,-0.68701 -0.6866,-1.07956 l 0,0 0,-0.0982 q -2.8465,-3.5331 -7.1644,-3.5331 -3.8277,0 -6.5754,2.74796 -2.6501,2.6498 -2.6501,6.47732 l 0,126.20947 q 0,3.82748 2.6501,6.47732 2.7477,2.74797 6.5754,2.74797 3.7291,0 6.4773,-2.74797 2.6496,-2.64984 2.6496,-6.47732 l 0,-87.24743 45.6355,91.46751 q 1.7666,3.3368 5.3978,4.51449 3.5331,1.17769 6.9684,-0.58884 3.9255,-1.96283 4.8085,-6.3792 0,0 0,-0.19643 0.098,-0.49067 0.098,-1.07952 z" />
        <path
           style="opacity:1;fill:#e87722;fill-opacity:1;stroke:#e87722;stroke-width:4.30282211;stroke-linecap:round;stroke-linejoin:round;stroke-opacity:1"
           d="m -3853.41,749.95897 -13.4917,16.31686 13.4917,0 13.501,0 z"
           id="path13174"
           inkscape:connector-curvature="0"
           sodipodi:nodetypes="ccccc" />
        <path
           sodipodi:nodetypes="ccccc"
           inkscape:connector-curvature="0"
           id="path13179"
           d="m -4035.0911,749.95897 -13.4917,16.31686 13.4917,0 13.5011,0 z"
           style="opacity:1;fill:#e87722;fill-opacity:1;stroke:#e87722;stroke-width:4.30282211;stroke-linecap:round;stroke-linejoin:round;stroke-opacity:1" />
        <path
           sodipodi:nodetypes="ccccc"
           inkscape:connector-curvature="0"
           id="path13205"
           d="m -3843.2959,586.25938 -13.4917,16.31686 13.4917,0 13.5015,0 z"
           style="opacity:1;fill:#e87722;fill-opacity:1;stroke:#e87722;stroke-width:4.30282211;stroke-linecap:round;stroke-linejoin:round;stroke-opacity:1" />
      </g>
    </g>
  </g>
</svg>
