<?xml version="1.0" encoding="UTF-8" standalone="no"?>
<!-- Created with Inkscape (http://www.inkscape.org/) -->

<svg
   xmlns:dc="http://purl.org/dc/elements/1.1/"
   xmlns:cc="http://creativecommons.org/ns#"
   xmlns:rdf="http://www.w3.org/1999/02/22-rdf-syntax-ns#"
   xmlns:svg="http://www.w3.org/2000/svg"
   xmlns="http://www.w3.org/2000/svg"
   xmlns:sodipodi="http://sodipodi.sourceforge.net/DTD/sodipodi-0.dtd"
   xmlns:inkscape="http://www.inkscape.org/namespaces/inkscape"
   width="120.24377mm"
   height="78.946609mm"
   viewBox="0 0 426.06059 279.73208"
   id="svg2"
   version="1.1"
   inkscape:version="0.91 r13725"
   sodipodi:docname="X.svg">
  <defs
     id="defs4" />
  <sodipodi:namedview
     id="base"
     pagecolor="#1a1a1a"
     bordercolor="#000000"
     borderopacity="1"
     inkscape:pageopacity="0"
     inkscape:pageshadow="2"
     inkscape:zoom="0.56637383"
     inkscape:cx="124.35655"
     inkscape:cy="46.547961"
     inkscape:document-units="px"
     inkscape:current-layer="layer2"
     showgrid="false"
     inkscape:showpageshadow="true"
     borderlayer="false"
     inkscape:window-width="1366"
     inkscape:window-height="715"
     inkscape:window-x="-8"
     inkscape:window-y="-8"
     inkscape:window-maximized="1"
     showborder="false"
     inkscape:object-paths="true"
     inkscape:snap-intersection-paths="true"
     inkscape:object-nodes="true"
     inkscape:snap-smooth-nodes="true"
     fit-margin-top="0"
     fit-margin-left="0"
     fit-margin-right="0"
     fit-margin-bottom="0">
    <inkscape:grid
       type="xygrid"
       id="grid8099"
       empspacing="20"
       originx="-18.893806"
       originy="-319.76833" />
  </sodipodi:namedview>
  <metadata
     id="metadata7">
    <rdf:RDF>
      <cc:Work
         rdf:about="">
        <dc:format>image/svg+xml</dc:format>
        <dc:type
           rdf:resource="http://purl.org/dc/dcmitype/StillImage" />
        <dc:title></dc:title>
      </cc:Work>
    </rdf:RDF>
  </metadata>
  <g
     inkscape:groupmode="layer"
     id="layer2"
     inkscape:label="Layer 1"
     transform="translate(-18.893799,-144.59407)">
    <g
       transform="translate(-7938.0759,243.52988)"
       id="g15168">
      <path
         inkscape:connector-curvature="0"
         style="opacity:1;fill:#ea8031;fill-opacity:1;stroke:#ffffff;stroke-width:16;stroke-linecap:round;stroke-linejoin:round;stroke-opacity:1"
         d="m 8059.8125,-84.789062 c -6.0626,-0.140992 -12.9375,2.007812 -19.8125,8.882812 -20,20 0,40 0,40 l 80,80 -80,80 c 0,0 -20,20 0,40 20,20 40,0 40,0 l 80,-80 80,80 c 0,0 20,20 40,0 20,-20 0,-40 0,-40 l -80,-80 80,-80 c 0,0 20,-20 0,-40 -20,-20 -40,0 -40,0 l -80,80 -80,-80 c 0,0 -8.6134,-8.613647 -20.1875,-8.882812 z"
         id="path14452" />
      <path
         inkscape:connector-curvature="0"
         id="path14442"
         d="M 8080,44.094488 7960,164.09449"
         style="opacity:1;fill:none;fill-opacity:1;stroke:#304d50;stroke-width:6;stroke-linecap:round;stroke-linejoin:round;stroke-opacity:1" />
      <path
         inkscape:connector-curvature="0"
         id="path14444"
         d="m 8060,24.094488 -40,40"
         style="opacity:1;fill:none;fill-opacity:1;stroke:#898989;stroke-width:6;stroke-linecap:round;stroke-linejoin:round;stroke-opacity:1" />
      <path
         sodipodi:nodetypes="cc"
         inkscape:connector-curvature="0"
         id="path14446"
         d="m 8240,44.094488 140,-140"
         style="opacity:1;fill:none;fill-opacity:1;stroke:#a8a7a7;stroke-width:6;stroke-linecap:round;stroke-linejoin:round;stroke-opacity:1" />
      <path
         inkscape:connector-curvature="0"
         id="path14448"
         d="m 8260,64.094488 20,-20"
         style="opacity:1;fill:none;fill-opacity:1;stroke:#898989;stroke-width:6;stroke-linecap:round;stroke-linejoin:round;stroke-opacity:1" />
      <path
         inkscape:connector-curvature="0"
         id="path14427"
         d="m 8059.8125,-84.789062 c -6.0626,-0.140992 -12.9375,2.007812 -19.8125,8.882812 -20,20 0,40 0,40 l 80,80 -80,80 c 0,0 -20,20 0,40 20,20 40,0 40,0 l 80,-80 80,80 c 0,0 20,20 40,0 20,-20 0,-40 0,-40 l -80,-80 80,-80 c 0,0 20,-20 0,-40 -20,-20 -40,0 -40,0 l -80,80 -80,-80 c 0,0 -8.6134,-8.613647 -20.1875,-8.882812 z"
         style="opacity:1;fill:none;fill-opacity:1;stroke:#e87722;stroke-width:6;stroke-linecap:round;stroke-linejoin:round;stroke-opacity:1" />
      <circle
         r="10"
         cy="34.09449"
         cx="8310"
         id="path14454"
         style="opacity:1;fill:none;fill-opacity:1;stroke:#a8a7a7;stroke-width:6;stroke-linecap:round;stroke-linejoin:round;stroke-opacity:1" />
      <circle
         r="10"
         cy="14.094488"
         cx="8030"
         id="path14456"
         style="opacity:1;fill:none;fill-opacity:1;stroke:#304d50;stroke-width:6;stroke-linecap:round;stroke-linejoin:round;stroke-opacity:1" />
    </g>
  </g>
</svg>
