<?xml version="1.0" encoding="UTF-8" standalone="no"?>
<!-- Created with Inkscape (http://www.inkscape.org/) -->

<svg
   xmlns:dc="http://purl.org/dc/elements/1.1/"
   xmlns:cc="http://creativecommons.org/ns#"
   xmlns:rdf="http://www.w3.org/1999/02/22-rdf-syntax-ns#"
   xmlns:svg="http://www.w3.org/2000/svg"
   xmlns="http://www.w3.org/2000/svg"
   xmlns:sodipodi="http://sodipodi.sourceforge.net/DTD/sodipodi-0.dtd"
   xmlns:inkscape="http://www.inkscape.org/namespaces/inkscape"
   width="49.671223mm"
   height="82.126671mm"
   viewBox="0 0 176.00039 291.00001"
   id="svg2"
   version="1.1"
   inkscape:version="0.91 r13725"
   sodipodi:docname="wanita.svg">
  <defs
     id="defs4">
    <clipPath
       clipPathUnits="userSpaceOnUse"
       id="clipPath4094">
      <path
         sodipodi:nodetypes="cscsccccscsc"
         inkscape:connector-curvature="0"
         id="path4096"
         d="m -760,-135.90551 0,-40 c 0,-20 20,-20 20,-20 l 20,0 c 20,0 20,-20 20,-20 l 0,-20 40,0 0,20 c 0,0 0,20 20,20 l 20,0 c 0,0 20,0 20,20 l 0,40"
         style="opacity:1;fill:#ffffff;fill-opacity:1;stroke:#304d50;stroke-width:6;stroke-linecap:round;stroke-linejoin:round;stroke-miterlimit:4;stroke-dasharray:none;stroke-dashoffset:0;stroke-opacity:1" />
    </clipPath>
  </defs>
  <sodipodi:namedview
     id="base"
     pagecolor="#1a1a1a"
     bordercolor="#000000"
     borderopacity="1"
     inkscape:pageopacity="0"
     inkscape:pageshadow="2"
     inkscape:zoom="0.40048678"
     inkscape:cx="360.30572"
     inkscape:cy="202.63625"
     inkscape:document-units="px"
     inkscape:current-layer="layer1"
     showgrid="false"
     inkscape:showpageshadow="true"
     borderlayer="false"
     inkscape:window-width="1366"
     inkscape:window-height="715"
     inkscape:window-x="-8"
     inkscape:window-y="-8"
     inkscape:window-maximized="1"
     showborder="false"
     inkscape:object-paths="true"
     inkscape:snap-intersection-paths="true"
     inkscape:object-nodes="true"
     inkscape:snap-smooth-nodes="true"
     fit-margin-top="0"
     fit-margin-left="0"
     fit-margin-right="0"
     fit-margin-bottom="0">
    <inkscape:grid
       type="xygrid"
       id="grid8099"
       empspacing="20"
       originx="95.000185"
       originy="37.499205" />
  </sodipodi:namedview>
  <metadata
     id="metadata7">
    <rdf:RDF>
      <cc:Work
         rdf:about="">
        <dc:format>image/svg+xml</dc:format>
        <dc:type
           rdf:resource="http://purl.org/dc/dcmitype/StillImage" />
        <dc:title></dc:title>
      </cc:Work>
    </rdf:RDF>
  </metadata>
  <g
     inkscape:groupmode="layer"
     id="layer2"
     inkscape:label="Layer 1"
     style="display:none"
     transform="translate(95.000189,-490.59371)">
    <rect
       style="opacity:1;fill:#ffffff;fill-opacity:1;stroke:#ffffff;stroke-width:5.99999952;stroke-linecap:round;stroke-linejoin:round;stroke-opacity:1"
       id="rect9402"
       width="359.99994"
       height="359.99994"
       x="-186.99997"
       y="456.09375" />
  </g>
  <g
     inkscape:groupmode="layer"
     id="layer1"
     inkscape:label="Layer 2"
     transform="translate(95.000189,-490.59371)">
    <g
       id="g8588"
       transform="translate(1413.0002,-230.50077)"
       inkscape:export-filename="G:\Lomba\FWD Hackathon 2017\Icons\Gender\sWanita.png"
       inkscape:export-xdpi="59.016392"
       inkscape:export-ydpi="59.016392">
      <path
         sodipodi:nodetypes="ccsccccscc"
         inkscape:connector-curvature="0"
         id="path7144"
         d="m -1500,1004.0945 0,-40.00001 c 0,0 0,-20 20,-20 l 20,0 40,0 40,0 20,0 c 0,0 20,0 20,20 l 0,40.00001 z"
         style="opacity:1;fill:#e87722;fill-opacity:1;stroke:#ffffff;stroke-width:16;stroke-linecap:round;stroke-linejoin:round;stroke-miterlimit:4;stroke-dasharray:none;stroke-dashoffset:0;stroke-opacity:1" />
      <path
         sodipodi:nodetypes="cccccscc"
         inkscape:connector-curvature="0"
         id="path3921"
         d="m -1480,884.0945 0,60 m 120,0 0,-140.00001 0,-40 c 0,0 0,-40 -40,-40 l -80,0 0,80"
         style="opacity:1;fill:#ffffff;fill-opacity:1;stroke:#304d50;stroke-width:6;stroke-linecap:round;stroke-linejoin:round;stroke-miterlimit:4;stroke-dasharray:none;stroke-dashoffset:0;stroke-opacity:1" />
      <path
         inkscape:connector-curvature="0"
         id="path4088"
         d="m -1460,944.0945 40,40 40,-40"
         style="opacity:1;fill:#ffffff;fill-opacity:1;stroke:#e87722;stroke-width:6;stroke-linecap:round;stroke-linejoin:round;stroke-miterlimit:4;stroke-dasharray:none;stroke-dashoffset:0;stroke-opacity:1" />
      <path
         style="opacity:1;fill:none;fill-opacity:1;stroke:#304d50;stroke-width:6;stroke-linecap:round;stroke-linejoin:round;stroke-miterlimit:4;stroke-dasharray:none;stroke-dashoffset:0;stroke-opacity:1"
         d="m -1500,1004.0945 0,-40 c 0,-20 20,-20 20,-20 l 20,0 c 20,0 20,-20 20,-20 l 0,-20 40,0 0,20 c 0,0 0,20 20,20 l 20,0 c 0,0 20,0 20,20 l 0,40"
         id="path3975"
         inkscape:connector-curvature="0"
         sodipodi:nodetypes="cscsccccscsc" />
      <path
         style="opacity:1;fill:#ffffff;fill-opacity:1;stroke:#304d50;stroke-width:6;stroke-linecap:round;stroke-linejoin:round;stroke-miterlimit:4;stroke-dasharray:none;stroke-dashoffset:0;stroke-opacity:1"
         d="m -1380,864.0945 0,19.9999 c 0,22.16 -17.84,40 -40,40 -22.16,0 -40,-17.84 -40,-40 l 0,-19.9999 m 0,-20 0,-39.39138 c 0,-22.16 17.84,-40.60864 40,-40.60864 22.16,0 40,17.84 40,40 l 0,40.00002"
         id="path3983"
         inkscape:connector-curvature="0"
         sodipodi:nodetypes="csssccsssc" />
      <path
         style="opacity:1;fill:#e87722;fill-opacity:1;stroke:#e87722;stroke-width:6;stroke-linecap:round;stroke-linejoin:round;stroke-miterlimit:4;stroke-dasharray:none;stroke-dashoffset:0;stroke-opacity:1"
         d="m -1440,864.0945 40,0 -20,20 z"
         id="path3987"
         inkscape:connector-curvature="0" />
      <path
         sodipodi:nodetypes="csssc"
         inkscape:connector-curvature="0"
         id="path3989"
         d="m -1470,864.0945 c -5.54,0 -10,-4.46 -10,-10 l 0,-20 c 0,-5.54 4.46,-10 10,-10 5.54,0 10,4.46 10,10"
         style="opacity:1;fill:none;fill-opacity:1;stroke:#304d50;stroke-width:6;stroke-linecap:round;stroke-linejoin:round;stroke-miterlimit:4;stroke-dasharray:none;stroke-dashoffset:0;stroke-opacity:1" />
      <path
         sodipodi:nodetypes="cscccsc"
         inkscape:connector-curvature="0"
         id="path3919"
         d="m -1360,804.09449 0,-40 c 0,-40 -40,-40 -40,-40 l -80,0 0,40 c 0,0 0,40 40,40 l 60,0"
         style="opacity:1;fill:#ffffff;fill-opacity:1;stroke:#304d50;stroke-width:6;stroke-linecap:round;stroke-linejoin:round;stroke-miterlimit:4;stroke-dasharray:none;stroke-dashoffset:0;stroke-opacity:1" />
    </g>
  </g>
</svg>
