<?xml version="1.0" encoding="UTF-8" standalone="no"?>
<!-- Created with Inkscape (http://www.inkscape.org/) -->

<svg
   xmlns:dc="http://purl.org/dc/elements/1.1/"
   xmlns:cc="http://creativecommons.org/ns#"
   xmlns:rdf="http://www.w3.org/1999/02/22-rdf-syntax-ns#"
   xmlns:svg="http://www.w3.org/2000/svg"
   xmlns="http://www.w3.org/2000/svg"
   xmlns:sodipodi="http://sodipodi.sourceforge.net/DTD/sodipodi-0.dtd"
   xmlns:inkscape="http://www.inkscape.org/namespaces/inkscape"
   width="75.083168mm"
   height="69.143082mm"
   viewBox="0 0 266.04275 244.99518"
   id="svg2"
   version="1.1"
   inkscape:version="0.91 r13725"
   sodipodi:docname="1.svg">
  <defs
     id="defs4">
    <clipPath
       clipPathUnits="userSpaceOnUse"
       id="clipPath7191">
      <path
         inkscape:connector-curvature="0"
         id="path7193"
         d="m -610,545.55947 a 30,30 0 0 0 -28.34961,20.28516 18.535015,18.535015 0 0 0 -3.11523,-0.28516 18.535015,18.535015 0 0 0 -18.53516,18.53516 18.535015,18.535015 0 0 0 0.0723,1.46484 l 78.17773,0 a 30,30 0 0 0 1.75,-10 30,30 0 0 0 -30,-30 z"
         style="opacity:1;fill:#ffffff;fill-opacity:1;stroke:#898989;stroke-width:6;stroke-linecap:round;stroke-linejoin:round;stroke-miterlimit:4;stroke-dasharray:none;stroke-dashoffset:0;stroke-opacity:1" />
    </clipPath>
    <clipPath
       clipPathUnits="userSpaceOnUse"
       id="clipPath7197">
      <path
         inkscape:connector-curvature="0"
         id="path7199"
         d="m -752.92969,604.09375 a 27.07004,27.07004 0 0 1 26.11133,20.04883 20,20 0 0 1 0.95898,-0.0488 20,20 0 0 1 20,20 l -70.82227,0 A 27.07004,27.07004 0 0 1 -780,631.16406 a 27.07004,27.07004 0 0 1 27.07031,-27.07031 z"
         style="opacity:1;fill:#ffffff;fill-opacity:1;stroke:#898989;stroke-width:6;stroke-linecap:round;stroke-linejoin:round;stroke-miterlimit:4;stroke-dasharray:none;stroke-dashoffset:0;stroke-opacity:1" />
    </clipPath>
    <clipPath
       clipPathUnits="userSpaceOnUse"
       id="clipPath7218">
      <path
         inkscape:connector-curvature="0"
         id="path7220"
         d="m -200,624.09449 a 40,40 0 0 0 -40,40 20,20 0 0 0 -20,20 l 118.25,0 a 30,30 0 0 0 1.75,-10 30,30 0 0 0 -25.17188,-29.57227 A 40,40 0 0 0 -200,624.09449 Z"
         style="opacity:1;fill:#ffffff;fill-opacity:1;stroke:#304d50;stroke-width:6;stroke-linecap:round;stroke-linejoin:round;stroke-miterlimit:4;stroke-dasharray:none;stroke-dashoffset:0;stroke-opacity:1" />
    </clipPath>
    <clipPath
       clipPathUnits="userSpaceOnUse"
       id="clipPath7227">
      <path
         inkscape:connector-curvature="0"
         id="path7229"
         d="m -320,564.09449 a 40,40 0 0 0 -40,40 20,20 0 0 0 -20,20 l 120,0 a 20,20 0 0 0 -20,-20 40,40 0 0 0 -40,-40 z"
         style="opacity:1;fill:#ffffff;fill-opacity:1;stroke:#304d50;stroke-width:6;stroke-linecap:round;stroke-linejoin:round;stroke-miterlimit:4;stroke-dasharray:none;stroke-dashoffset:0;stroke-opacity:1" />
    </clipPath>
    <clipPath
       clipPathUnits="userSpaceOnUse"
       id="clipPath7257">
      <path
         inkscape:connector-curvature="0"
         id="path7259"
         d="m -760,1024.0945 a 29.999996,29.999996 0 0 0 -30,30 29.999996,29.999996 0 0 0 1.75,10 l -11.75,0 c -5.54,0 -10,4.46 -10,10 0,5.5399 4.46,10 10,10 l 40,0 60,0 c 5.54,0 10,-4.4601 10,-10 0,-5.54 -4.46,-10 -10,-10 l -31.75391,0 a 29.999996,29.999996 0 0 0 1.75391,-10 29.999996,29.999996 0 0 0 -30,-30 z"
         style="opacity:1;fill:#ffffff;fill-opacity:1;stroke:#304d50;stroke-width:6;stroke-linecap:round;stroke-linejoin:round;stroke-miterlimit:4;stroke-dasharray:none;stroke-dashoffset:0;stroke-opacity:1" />
    </clipPath>
    <clipPath
       clipPathUnits="userSpaceOnUse"
       id="clipPath7263">
      <path
         sodipodi:nodetypes="scssscssscs"
         inkscape:connector-curvature="0"
         id="path7265"
         d="m -600,1024.0945 c -11.0457,0 -20,8.9543 -20,20 l -40,7e-4 c -5.54,10e-5 -10,4.46 -10,10 0,5.5399 4.46,10.0001 10,10 l 60,-7e-4 30,0 c 5.54,0 10,-4.4601 10,-10 0,-5.54 -4.46,-10 -10,-10 l -10,0 c 0,-11.0457 -8.9543,-20 -20,-20 z"
         style="opacity:1;fill:#ffffff;fill-opacity:1;stroke:#304d50;stroke-width:6;stroke-linecap:round;stroke-linejoin:round;stroke-miterlimit:4;stroke-dasharray:none;stroke-dashoffset:0;stroke-opacity:1" />
    </clipPath>
    <clipPath
       clipPathUnits="userSpaceOnUse"
       id="clipPath4094">
      <path
         sodipodi:nodetypes="cscsccccscsc"
         inkscape:connector-curvature="0"
         id="path4096"
         d="m -760,-135.90551 0,-40 c 0,-20 20,-20 20,-20 l 20,0 c 20,0 20,-20 20,-20 l 0,-20 40,0 0,20 c 0,0 0,20 20,20 l 20,0 c 0,0 20,0 20,20 l 0,40"
         style="opacity:1;fill:#ffffff;fill-opacity:1;stroke:#304d50;stroke-width:6;stroke-linecap:round;stroke-linejoin:round;stroke-miterlimit:4;stroke-dasharray:none;stroke-dashoffset:0;stroke-opacity:1" />
    </clipPath>
    <clipPath
       clipPathUnits="userSpaceOnUse"
       id="clipPath4094-4">
      <path
         sodipodi:nodetypes="cscsccccscsc"
         inkscape:connector-curvature="0"
         id="path4096-63"
         d="m -760,-135.90551 0,-40 c 0,-20 20,-20 20,-20 l 20,0 c 20,0 20,-20 20,-20 l 0,-20 40,0 0,20 c 0,0 0,20 20,20 l 20,0 c 0,0 20,0 20,20 l 0,40"
         style="opacity:1;fill:#ffffff;fill-opacity:1;stroke:#304d50;stroke-width:6;stroke-linecap:round;stroke-linejoin:round;stroke-miterlimit:4;stroke-dasharray:none;stroke-dashoffset:0;stroke-opacity:1" />
    </clipPath>
  </defs>
  <sodipodi:namedview
     id="base"
     pagecolor="#1a1a1a"
     bordercolor="#000000"
     borderopacity="1"
     inkscape:pageopacity="0"
     inkscape:pageshadow="2"
     inkscape:zoom="0.56637383"
     inkscape:cx="196.12761"
     inkscape:cy="123.20099"
     inkscape:document-units="px"
     inkscape:current-layer="layer2"
     showgrid="false"
     inkscape:showpageshadow="true"
     borderlayer="false"
     inkscape:window-width="1366"
     inkscape:window-height="715"
     inkscape:window-x="-8"
     inkscape:window-y="-8"
     inkscape:window-maximized="1"
     showborder="false"
     inkscape:object-paths="true"
     inkscape:snap-intersection-paths="true"
     inkscape:object-nodes="true"
     inkscape:snap-smooth-nodes="true"
     fit-margin-top="0"
     fit-margin-left="0"
     fit-margin-right="0"
     fit-margin-bottom="0">
    <inkscape:grid
       type="xygrid"
       id="grid8099"
       empspacing="20"
       originx="-371.50116"
       originy="-361.99129" />
  </sodipodi:namedview>
  <metadata
     id="metadata7">
    <rdf:RDF>
      <cc:Work
         rdf:about="">
        <dc:format>image/svg+xml</dc:format>
        <dc:type
           rdf:resource="http://purl.org/dc/dcmitype/StillImage" />
        <dc:title></dc:title>
      </cc:Work>
    </rdf:RDF>
  </metadata>
  <g
     inkscape:groupmode="layer"
     id="layer2"
     inkscape:label="Layer 1"
     transform="translate(-371.50117,-137.108)">
    <g
       transform="translate(-2885.4561,-163.98619)"
       id="g11380">
      <rect
         inkscape:export-ydpi="59.016392"
         inkscape:export-xdpi="59.016392"
         inkscape:export-filename="G:\Lomba\FWD Hackathon 2017\Icons\Rokok\s1.png"
         transform="matrix(0.70710678,0.70710678,-0.70710678,0.70710678,0,0)"
         y="-2181.8567"
         x="2669.9011"
         height="240"
         width="40"
         id="rect6640"
         style="opacity:1;fill:#ffffff;fill-opacity:1;stroke:#304d50;stroke-width:6;stroke-linecap:round;stroke-linejoin:round;stroke-miterlimit:4;stroke-dasharray:none;stroke-dashoffset:0;stroke-opacity:1" />
      <rect
         inkscape:export-ydpi="59.016392"
         inkscape:export-xdpi="59.016392"
         inkscape:export-filename="G:\Lomba\FWD Hackathon 2017\Icons\Rokok\s1.png"
         transform="matrix(0.70710678,0.70710678,-0.70710678,0.70710678,0,0)"
         y="-2021.8566"
         x="2669.9011"
         height="80"
         width="40"
         id="rect6642"
         style="opacity:1;fill:#e87722;fill-opacity:1;stroke:#304d50;stroke-width:6;stroke-linecap:round;stroke-linejoin:round;stroke-miterlimit:4;stroke-dasharray:none;stroke-dashoffset:0;stroke-opacity:1" />
      <rect
         inkscape:export-ydpi="59.016392"
         inkscape:export-xdpi="59.016392"
         inkscape:export-filename="G:\Lomba\FWD Hackathon 2017\Icons\Rokok\s1.png"
         transform="matrix(0.70710678,0.70710678,-0.70710678,0.70710678,0,0)"
         y="-2181.8567"
         x="2669.9011"
         height="20"
         width="40"
         id="rect6644"
         style="opacity:1;fill:#a8a7a7;fill-opacity:1;stroke:#304d50;stroke-width:6;stroke-linecap:round;stroke-linejoin:round;stroke-miterlimit:4;stroke-dasharray:none;stroke-dashoffset:0;stroke-opacity:1" />
      <path
         inkscape:export-ydpi="59.016392"
         inkscape:export-xdpi="59.016392"
         inkscape:export-filename="G:\Lomba\FWD Hackathon 2017\Icons\Rokok\s1.png"
         sodipodi:nodetypes="ccsc"
         inkscape:connector-curvature="0"
         id="path6646"
         d="m 3460,404.09449 0,20 c 0,0 0,20 -20,20 -20,0 -20,20 -20,20 0,0 0,40 -40,40"
         style="opacity:1;fill:#ffffff;fill-opacity:1;stroke:#a8a7a7;stroke-width:6;stroke-linecap:round;stroke-linejoin:round;stroke-miterlimit:4;stroke-dasharray:none;stroke-dashoffset:0;stroke-opacity:1" />
      <path
         inkscape:export-ydpi="59.016392"
         inkscape:export-xdpi="59.016392"
         inkscape:export-filename="G:\Lomba\FWD Hackathon 2017\Icons\Rokok\s1.png"
         inkscape:connector-curvature="0"
         id="path6648"
         d="m 3480,384.09449 0,60 c 0,0 0,20 20,20 20,0 20,20 20,20 0,0 0,40 -40,40"
         style="opacity:1;fill:#ffffff;fill-opacity:1;stroke:#898989;stroke-width:6;stroke-linecap:round;stroke-linejoin:round;stroke-miterlimit:4;stroke-dasharray:none;stroke-dashoffset:0;stroke-opacity:1" />
      <path
         inkscape:export-ydpi="59.016392"
         inkscape:export-xdpi="59.016392"
         inkscape:export-filename="G:\Lomba\FWD Hackathon 2017\Icons\Rokok\s1.png"
         inkscape:connector-curvature="0"
         id="path6652"
         d="m 3400,344.09449 -40,0 c 0,0 -20,0 -20,-20 0,-20 -20,-20 -20,-20 l -60,0"
         style="opacity:1;fill:#ffffff;fill-opacity:1;stroke:#a8a7a7;stroke-width:6;stroke-linecap:round;stroke-linejoin:round;stroke-miterlimit:4;stroke-dasharray:none;stroke-dashoffset:0;stroke-opacity:1" />
      <path
         inkscape:export-ydpi="59.016392"
         inkscape:export-xdpi="59.016392"
         inkscape:export-filename="G:\Lomba\FWD Hackathon 2017\Icons\Rokok\s1.png"
         inkscape:connector-curvature="0"
         id="path6654"
         d="m 3380,364.09449 -60,0 c 0,0 -20,0 -20,-20 0,-20 -20,-20 -20,-20"
         style="opacity:1;fill:#ffffff;fill-opacity:1;stroke:#898989;stroke-width:6;stroke-linecap:round;stroke-linejoin:round;stroke-miterlimit:4;stroke-dasharray:none;stroke-dashoffset:0;stroke-opacity:1" />
    </g>
  </g>
</svg>
