<?xml version="1.0" encoding="UTF-8" standalone="no"?>
<!-- Created with Inkscape (http://www.inkscape.org/) -->

<svg
   xmlns:dc="http://purl.org/dc/elements/1.1/"
   xmlns:cc="http://creativecommons.org/ns#"
   xmlns:rdf="http://www.w3.org/1999/02/22-rdf-syntax-ns#"
   xmlns:svg="http://www.w3.org/2000/svg"
   xmlns="http://www.w3.org/2000/svg"
   xmlns:sodipodi="http://sodipodi.sourceforge.net/DTD/sodipodi-0.dtd"
   xmlns:inkscape="http://www.inkscape.org/namespaces/inkscape"
   width="72.248878mm"
   height="72.248863mm"
   viewBox="0 0 255.99999 255.99992"
   id="svg2"
   version="1.1"
   inkscape:version="0.91 r13725"
   sodipodi:docname="2.svg">
  <defs
     id="defs4">
    <clipPath
       clipPathUnits="userSpaceOnUse"
       id="clipPath7191">
      <path
         inkscape:connector-curvature="0"
         id="path7193"
         d="m -610,545.55947 a 30,30 0 0 0 -28.34961,20.28516 18.535015,18.535015 0 0 0 -3.11523,-0.28516 18.535015,18.535015 0 0 0 -18.53516,18.53516 18.535015,18.535015 0 0 0 0.0723,1.46484 l 78.17773,0 a 30,30 0 0 0 1.75,-10 30,30 0 0 0 -30,-30 z"
         style="opacity:1;fill:#ffffff;fill-opacity:1;stroke:#898989;stroke-width:6;stroke-linecap:round;stroke-linejoin:round;stroke-miterlimit:4;stroke-dasharray:none;stroke-dashoffset:0;stroke-opacity:1" />
    </clipPath>
    <clipPath
       clipPathUnits="userSpaceOnUse"
       id="clipPath7197">
      <path
         inkscape:connector-curvature="0"
         id="path7199"
         d="m -752.92969,604.09375 a 27.07004,27.07004 0 0 1 26.11133,20.04883 20,20 0 0 1 0.95898,-0.0488 20,20 0 0 1 20,20 l -70.82227,0 A 27.07004,27.07004 0 0 1 -780,631.16406 a 27.07004,27.07004 0 0 1 27.07031,-27.07031 z"
         style="opacity:1;fill:#ffffff;fill-opacity:1;stroke:#898989;stroke-width:6;stroke-linecap:round;stroke-linejoin:round;stroke-miterlimit:4;stroke-dasharray:none;stroke-dashoffset:0;stroke-opacity:1" />
    </clipPath>
    <clipPath
       clipPathUnits="userSpaceOnUse"
       id="clipPath7218">
      <path
         inkscape:connector-curvature="0"
         id="path7220"
         d="m -200,624.09449 a 40,40 0 0 0 -40,40 20,20 0 0 0 -20,20 l 118.25,0 a 30,30 0 0 0 1.75,-10 30,30 0 0 0 -25.17188,-29.57227 A 40,40 0 0 0 -200,624.09449 Z"
         style="opacity:1;fill:#ffffff;fill-opacity:1;stroke:#304d50;stroke-width:6;stroke-linecap:round;stroke-linejoin:round;stroke-miterlimit:4;stroke-dasharray:none;stroke-dashoffset:0;stroke-opacity:1" />
    </clipPath>
    <clipPath
       clipPathUnits="userSpaceOnUse"
       id="clipPath7227">
      <path
         inkscape:connector-curvature="0"
         id="path7229"
         d="m -320,564.09449 a 40,40 0 0 0 -40,40 20,20 0 0 0 -20,20 l 120,0 a 20,20 0 0 0 -20,-20 40,40 0 0 0 -40,-40 z"
         style="opacity:1;fill:#ffffff;fill-opacity:1;stroke:#304d50;stroke-width:6;stroke-linecap:round;stroke-linejoin:round;stroke-miterlimit:4;stroke-dasharray:none;stroke-dashoffset:0;stroke-opacity:1" />
    </clipPath>
    <clipPath
       clipPathUnits="userSpaceOnUse"
       id="clipPath7257">
      <path
         inkscape:connector-curvature="0"
         id="path7259"
         d="m -760,1024.0945 a 29.999996,29.999996 0 0 0 -30,30 29.999996,29.999996 0 0 0 1.75,10 l -11.75,0 c -5.54,0 -10,4.46 -10,10 0,5.5399 4.46,10 10,10 l 40,0 60,0 c 5.54,0 10,-4.4601 10,-10 0,-5.54 -4.46,-10 -10,-10 l -31.75391,0 a 29.999996,29.999996 0 0 0 1.75391,-10 29.999996,29.999996 0 0 0 -30,-30 z"
         style="opacity:1;fill:#ffffff;fill-opacity:1;stroke:#304d50;stroke-width:6;stroke-linecap:round;stroke-linejoin:round;stroke-miterlimit:4;stroke-dasharray:none;stroke-dashoffset:0;stroke-opacity:1" />
    </clipPath>
    <clipPath
       clipPathUnits="userSpaceOnUse"
       id="clipPath7263">
      <path
         sodipodi:nodetypes="scssscssscs"
         inkscape:connector-curvature="0"
         id="path7265"
         d="m -600,1024.0945 c -11.0457,0 -20,8.9543 -20,20 l -40,7e-4 c -5.54,10e-5 -10,4.46 -10,10 0,5.5399 4.46,10.0001 10,10 l 60,-7e-4 30,0 c 5.54,0 10,-4.4601 10,-10 0,-5.54 -4.46,-10 -10,-10 l -10,0 c 0,-11.0457 -8.9543,-20 -20,-20 z"
         style="opacity:1;fill:#ffffff;fill-opacity:1;stroke:#304d50;stroke-width:6;stroke-linecap:round;stroke-linejoin:round;stroke-miterlimit:4;stroke-dasharray:none;stroke-dashoffset:0;stroke-opacity:1" />
    </clipPath>
    <clipPath
       clipPathUnits="userSpaceOnUse"
       id="clipPath4094">
      <path
         sodipodi:nodetypes="cscsccccscsc"
         inkscape:connector-curvature="0"
         id="path4096"
         d="m -760,-135.90551 0,-40 c 0,-20 20,-20 20,-20 l 20,0 c 20,0 20,-20 20,-20 l 0,-20 40,0 0,20 c 0,0 0,20 20,20 l 20,0 c 0,0 20,0 20,20 l 0,40"
         style="opacity:1;fill:#ffffff;fill-opacity:1;stroke:#304d50;stroke-width:6;stroke-linecap:round;stroke-linejoin:round;stroke-miterlimit:4;stroke-dasharray:none;stroke-dashoffset:0;stroke-opacity:1" />
    </clipPath>
    <clipPath
       clipPathUnits="userSpaceOnUse"
       id="clipPath4094-4">
      <path
         sodipodi:nodetypes="cscsccccscsc"
         inkscape:connector-curvature="0"
         id="path4096-63"
         d="m -760,-135.90551 0,-40 c 0,-20 20,-20 20,-20 l 20,0 c 20,0 20,-20 20,-20 l 0,-20 40,0 0,20 c 0,0 0,20 20,20 l 20,0 c 0,0 20,0 20,20 l 0,40"
         style="opacity:1;fill:#ffffff;fill-opacity:1;stroke:#304d50;stroke-width:6;stroke-linecap:round;stroke-linejoin:round;stroke-miterlimit:4;stroke-dasharray:none;stroke-dashoffset:0;stroke-opacity:1" />
    </clipPath>
  </defs>
  <sodipodi:namedview
     id="base"
     pagecolor="#1a1a1a"
     bordercolor="#000000"
     borderopacity="1"
     inkscape:pageopacity="0"
     inkscape:pageshadow="2"
     inkscape:zoom="0.56637383"
     inkscape:cx="212.89368"
     inkscape:cy="81.701592"
     inkscape:document-units="px"
     inkscape:current-layer="layer2"
     showgrid="false"
     inkscape:showpageshadow="true"
     borderlayer="false"
     inkscape:window-width="1366"
     inkscape:window-height="715"
     inkscape:window-x="-8"
     inkscape:window-y="-8"
     inkscape:window-maximized="1"
     showborder="false"
     inkscape:object-paths="true"
     inkscape:snap-intersection-paths="true"
     inkscape:object-nodes="true"
     inkscape:snap-smooth-nodes="true"
     fit-margin-top="0"
     fit-margin-left="0"
     fit-margin-right="0"
     fit-margin-bottom="0">
    <inkscape:grid
       type="xygrid"
       id="grid8099"
       empspacing="20"
       originx="-354.73508"
       originy="-403.49071" />
  </sodipodi:namedview>
  <metadata
     id="metadata7">
    <rdf:RDF>
      <cc:Work
         rdf:about="">
        <dc:format>image/svg+xml</dc:format>
        <dc:type
           rdf:resource="http://purl.org/dc/dcmitype/StillImage" />
        <dc:title></dc:title>
      </cc:Work>
    </rdf:RDF>
  </metadata>
  <g
     inkscape:groupmode="layer"
     id="layer2"
     inkscape:label="Layer 1"
     transform="translate(-354.7351,-84.603845)">
    <g
       transform="translate(-2897.2649,-651.48992)"
       id="g11425">
      <path
         inkscape:export-ydpi="59.016392"
         inkscape:export-xdpi="59.016392"
         inkscape:export-filename="G:\Lomba\FWD Hackathon 2017\Icons\Rokok\s2.png"
         inkscape:connector-curvature="0"
         id="path6670"
         d="m 3380,744.09375 a 120,120 0 0 0 -120,120 120,120 0 0 0 120,119.99995 120,120 0 0 0 120,-119.99995 120,120 0 0 0 -120,-120 z m 0,40 a 80.000008,80.000008 0 0 1 80,80 80.000008,80.000008 0 0 1 -11.1504,40.56641 L 3339.4375,795.24805 A 80.000008,80.000008 0 0 1 3380,784.09375 Z m -68.8516,39.43359 109.4121,109.41211 a 80.000008,80.000008 0 0 1 -40.5605,11.1543 80.000008,80.000008 0 0 1 -80,-80 80.000008,80.000008 0 0 1 11.1484,-40.56641 z"
         style="opacity:1;fill:#e87722;fill-opacity:1;stroke:#ffffff;stroke-width:16;stroke-linecap:round;stroke-linejoin:round;stroke-miterlimit:4;stroke-dasharray:none;stroke-dashoffset:0;stroke-opacity:1" />
      <path
         inkscape:export-ydpi="59.016392"
         inkscape:export-xdpi="59.016392"
         inkscape:export-filename="G:\Lomba\FWD Hackathon 2017\Icons\Rokok\s2.png"
         style="opacity:1;fill:none;fill-opacity:1;stroke:#304d50;stroke-width:6;stroke-linecap:round;stroke-linejoin:round;stroke-miterlimit:4;stroke-dasharray:none;stroke-dashoffset:0;stroke-opacity:1"
         d="m 3380,744.09375 a 120,120 0 0 0 -120,120 120,120 0 0 0 120,119.99995 120,120 0 0 0 120,-119.99995 120,120 0 0 0 -120,-120 z m 0,40 a 80.000008,80.000008 0 0 1 80,80 80.000008,80.000008 0 0 1 -11.1504,40.56641 L 3339.4375,795.24805 A 80.000008,80.000008 0 0 1 3380,784.09375 Z m -68.8516,39.43359 109.4121,109.41211 a 80.000008,80.000008 0 0 1 -40.5605,11.1543 80.000008,80.000008 0 0 1 -80,-80 80.000008,80.000008 0 0 1 11.1484,-40.56641 z"
         id="path7435"
         inkscape:connector-curvature="0" />
      <path
         inkscape:export-ydpi="59.016392"
         inkscape:export-xdpi="59.016392"
         inkscape:export-filename="G:\Lomba\FWD Hackathon 2017\Icons\Rokok\s2.png"
         id="rect6656"
         d="M 3450.7109,765.09961 3380,835.81055 l 28.2852,28.2832 70.7089,-70.70898 -28.2832,-28.28516 z m -98.9941,98.99414 -84.8535,84.85352 28.2832,28.28515 84.8535,-84.85351 -28.2832,-28.28516 z"
         style="opacity:1;fill:#ffffff;fill-opacity:1;stroke:#304d50;stroke-width:6;stroke-linecap:round;stroke-linejoin:round;stroke-miterlimit:4;stroke-dasharray:none;stroke-dashoffset:0;stroke-opacity:1"
         inkscape:connector-curvature="0" />
      <rect
         inkscape:export-ydpi="59.016392"
         inkscape:export-xdpi="59.016392"
         inkscape:export-filename="G:\Lomba\FWD Hackathon 2017\Icons\Rokok\s2.png"
         transform="matrix(0.70710678,0.70710678,-0.70710678,0.70710678,0,0)"
         style="opacity:1;fill:#e87722;fill-opacity:1;stroke:#304d50;stroke-width:6;stroke-linecap:round;stroke-linejoin:round;stroke-miterlimit:4;stroke-dasharray:none;stroke-dashoffset:0;stroke-opacity:1"
         id="rect6658"
         width="40"
         height="79.999992"
         x="2981.0281"
         y="-1719.0139" />
      <rect
         inkscape:export-ydpi="59.016392"
         inkscape:export-xdpi="59.016392"
         inkscape:export-filename="G:\Lomba\FWD Hackathon 2017\Icons\Rokok\s2.png"
         transform="matrix(0.70710678,0.70710678,-0.70710678,0.70710678,0,0)"
         style="opacity:1;fill:#a8a7a7;fill-opacity:1;stroke:#304d50;stroke-width:6;stroke-linecap:round;stroke-linejoin:round;stroke-miterlimit:4;stroke-dasharray:none;stroke-dashoffset:0;stroke-opacity:1"
         id="rect6660"
         width="40"
         height="20"
         x="2981.0281"
         y="-1919.0139" />
    </g>
  </g>
</svg>
