<?xml version="1.0" encoding="UTF-8" standalone="no"?>
<!-- Created with Inkscape (http://www.inkscape.org/) -->

<svg
   xmlns:dc="http://purl.org/dc/elements/1.1/"
   xmlns:cc="http://creativecommons.org/ns#"
   xmlns:rdf="http://www.w3.org/1999/02/22-rdf-syntax-ns#"
   xmlns:svg="http://www.w3.org/2000/svg"
   xmlns="http://www.w3.org/2000/svg"
   xmlns:sodipodi="http://sodipodi.sourceforge.net/DTD/sodipodi-0.dtd"
   xmlns:inkscape="http://www.inkscape.org/namespaces/inkscape"
   width="69.426666mm"
   height="50.596565mm"
   viewBox="0 0 246.00002 179.27918"
   id="svg2"
   version="1.1"
   inkscape:version="0.91 r13725"
   sodipodi:docname="4.svg">
  <defs
     id="defs4">
    <clipPath
       clipPathUnits="userSpaceOnUse"
       id="clipPath7191">
      <path
         inkscape:connector-curvature="0"
         id="path7193"
         d="m -610,545.55947 a 30,30 0 0 0 -28.34961,20.28516 18.535015,18.535015 0 0 0 -3.11523,-0.28516 18.535015,18.535015 0 0 0 -18.53516,18.53516 18.535015,18.535015 0 0 0 0.0723,1.46484 l 78.17773,0 a 30,30 0 0 0 1.75,-10 30,30 0 0 0 -30,-30 z"
         style="opacity:1;fill:#ffffff;fill-opacity:1;stroke:#898989;stroke-width:6;stroke-linecap:round;stroke-linejoin:round;stroke-miterlimit:4;stroke-dasharray:none;stroke-dashoffset:0;stroke-opacity:1" />
    </clipPath>
    <clipPath
       clipPathUnits="userSpaceOnUse"
       id="clipPath7197">
      <path
         inkscape:connector-curvature="0"
         id="path7199"
         d="m -752.92969,604.09375 a 27.07004,27.07004 0 0 1 26.11133,20.04883 20,20 0 0 1 0.95898,-0.0488 20,20 0 0 1 20,20 l -70.82227,0 A 27.07004,27.07004 0 0 1 -780,631.16406 a 27.07004,27.07004 0 0 1 27.07031,-27.07031 z"
         style="opacity:1;fill:#ffffff;fill-opacity:1;stroke:#898989;stroke-width:6;stroke-linecap:round;stroke-linejoin:round;stroke-miterlimit:4;stroke-dasharray:none;stroke-dashoffset:0;stroke-opacity:1" />
    </clipPath>
    <clipPath
       clipPathUnits="userSpaceOnUse"
       id="clipPath7218">
      <path
         inkscape:connector-curvature="0"
         id="path7220"
         d="m -200,624.09449 a 40,40 0 0 0 -40,40 20,20 0 0 0 -20,20 l 118.25,0 a 30,30 0 0 0 1.75,-10 30,30 0 0 0 -25.17188,-29.57227 A 40,40 0 0 0 -200,624.09449 Z"
         style="opacity:1;fill:#ffffff;fill-opacity:1;stroke:#304d50;stroke-width:6;stroke-linecap:round;stroke-linejoin:round;stroke-miterlimit:4;stroke-dasharray:none;stroke-dashoffset:0;stroke-opacity:1" />
    </clipPath>
    <clipPath
       clipPathUnits="userSpaceOnUse"
       id="clipPath7227">
      <path
         inkscape:connector-curvature="0"
         id="path7229"
         d="m -320,564.09449 a 40,40 0 0 0 -40,40 20,20 0 0 0 -20,20 l 120,0 a 20,20 0 0 0 -20,-20 40,40 0 0 0 -40,-40 z"
         style="opacity:1;fill:#ffffff;fill-opacity:1;stroke:#304d50;stroke-width:6;stroke-linecap:round;stroke-linejoin:round;stroke-miterlimit:4;stroke-dasharray:none;stroke-dashoffset:0;stroke-opacity:1" />
    </clipPath>
  </defs>
  <sodipodi:namedview
     id="base"
     pagecolor="#1a1a1a"
     bordercolor="#000000"
     borderopacity="1"
     inkscape:pageopacity="0"
     inkscape:pageshadow="2"
     inkscape:zoom="0.56637383"
     inkscape:cx="51.887422"
     inkscape:cy="126.86966"
     inkscape:document-units="px"
     inkscape:current-layer="layer2"
     showgrid="true"
     inkscape:showpageshadow="true"
     borderlayer="false"
     inkscape:window-width="1366"
     inkscape:window-height="715"
     inkscape:window-x="-8"
     inkscape:window-y="-8"
     inkscape:window-maximized="1"
     showborder="false"
     inkscape:object-paths="true"
     inkscape:snap-intersection-paths="true"
     inkscape:object-nodes="true"
     inkscape:snap-smooth-nodes="true"
     fit-margin-top="0"
     fit-margin-left="0"
     fit-margin-right="0"
     fit-margin-bottom="0">
    <inkscape:grid
       type="xygrid"
       id="grid8099"
       empspacing="20"
       originx="-167.91453"
       originy="-321.24465" />
  </sodipodi:namedview>
  <metadata
     id="metadata7">
    <rdf:RDF>
      <cc:Work
         rdf:about="">
        <dc:format>image/svg+xml</dc:format>
        <dc:type
           rdf:resource="http://purl.org/dc/dcmitype/StillImage" />
        <dc:title></dc:title>
      </cc:Work>
    </rdf:RDF>
  </metadata>
  <g
     inkscape:groupmode="layer"
     id="layer2"
     inkscape:label="Layer 1"
     transform="translate(-167.91452,-243.57066)">
    <ellipse
       style="opacity:1;fill:#e87722;fill-opacity:1;stroke:#ffffff;stroke-width:16;stroke-linecap:round;stroke-linejoin:round;stroke-miterlimit:4;stroke-dasharray:none;stroke-dashoffset:0;stroke-opacity:1"
       id="circle7233"
       cx="290.91452"
       cy="333.21024"
       inkscape:export-filename="G:\Lomba\FWD Hackathon 2017\Icons\Umur\s4.png"
       inkscape:export-xdpi="59.016392"
       inkscape:export-ydpi="59.016392"
       rx="60.000008"
       ry="60.000004" />
    <ellipse
       cy="333.21024"
       cx="290.91452"
       id="circle4542"
       style="opacity:1;fill:none;fill-opacity:1;stroke:#304d50;stroke-width:6;stroke-linecap:round;stroke-linejoin:round;stroke-miterlimit:4;stroke-dasharray:none;stroke-dashoffset:0;stroke-opacity:1"
       inkscape:export-filename="G:\Lomba\FWD Hackathon 2017\Icons\Umur\s4.png"
       inkscape:export-xdpi="59.016392"
       inkscape:export-ydpi="59.016392"
       rx="60.000008"
       ry="60.000004" />
    <path
       style="opacity:1;fill:#ffffff;fill-opacity:1;stroke:#304d50;stroke-width:6;stroke-linecap:round;stroke-linejoin:round;stroke-miterlimit:4;stroke-dasharray:none;stroke-dashoffset:0;stroke-opacity:1"
       d="m 350.91453,353.21024 a 40.000002,40 0 0 0 -40,40 20.000001,20 0 0 0 -20,20 l 118.25,0 a 30.000002,30 0 0 0 1.75,-10 30.000002,30 0 0 0 -25.17188,-29.57227 40.000002,40 0 0 0 -34.82812,-20.42773 z"
       id="path4807"
       inkscape:connector-curvature="0"
       inkscape:export-filename="G:\Lomba\FWD Hackathon 2017\Icons\Umur\s4.png"
       inkscape:export-xdpi="59.016392"
       inkscape:export-ydpi="59.016392" />
    <path
       style="opacity:1;fill:#ffffff;fill-opacity:1;stroke:#304d50;stroke-width:6;stroke-linecap:round;stroke-linejoin:round;stroke-miterlimit:4;stroke-dasharray:none;stroke-dashoffset:0;stroke-opacity:1"
       d="m 230.91452,293.21024 a 40.000002,40 0 0 0 -40,40 20.000001,20 0 0 0 -20,20 l 120.00001,0 a 20.000001,20 0 0 0 -20,-20 40.000002,40 0 0 0 -40.00001,-40 z"
       id="path4831"
       inkscape:connector-curvature="0"
       inkscape:export-filename="G:\Lomba\FWD Hackathon 2017\Icons\Umur\s4.png"
       inkscape:export-xdpi="59.016392"
       inkscape:export-ydpi="59.016392" />
    <path
       style="opacity:1;fill:#ffffff;fill-opacity:1;stroke:#898989;stroke-width:6;stroke-linecap:round;stroke-linejoin:round;stroke-miterlimit:4;stroke-dasharray:none;stroke-dashoffset:0;stroke-opacity:1"
       d="m 375.76734,248.35741 -28.28427,28.28428"
       id="path4466-3"
       inkscape:connector-curvature="0"
       sodipodi:nodetypes="cc"
       inkscape:export-filename="G:\Lomba\FWD Hackathon 2017\Icons\Umur\s4.png"
       inkscape:export-xdpi="59.016392"
       inkscape:export-ydpi="59.016392" />
    <path
       inkscape:connector-curvature="0"
       id="path4468-2"
       d="m 234.34598,389.77879 -28.28427,28.28427"
       style="opacity:1;fill:#ffffff;fill-opacity:1;stroke:#898989;stroke-width:6;stroke-linecap:round;stroke-linejoin:round;stroke-miterlimit:4;stroke-dasharray:none;stroke-dashoffset:0;stroke-opacity:1"
       sodipodi:nodetypes="cc"
       inkscape:export-filename="G:\Lomba\FWD Hackathon 2017\Icons\Umur\s4.png"
       inkscape:export-xdpi="59.016392"
       inkscape:export-ydpi="59.016392" />
    <path
       sodipodi:nodetypes="cc"
       inkscape:connector-curvature="0"
       id="path4470-0"
       d="m 340.91452,246.6077 -9.99999,17.32049"
       style="opacity:1;fill:#ffffff;fill-opacity:1;stroke:#a8a7a7;stroke-width:6;stroke-linecap:round;stroke-linejoin:round;stroke-miterlimit:4;stroke-dasharray:none;stroke-dashoffset:0;stroke-opacity:1"
       inkscape:export-filename="G:\Lomba\FWD Hackathon 2017\Icons\Umur\s4.png"
       inkscape:export-xdpi="59.016392"
       inkscape:export-ydpi="59.016392" />
    <path
       sodipodi:nodetypes="cc"
       style="opacity:1;fill:#ffffff;fill-opacity:1;stroke:#a8a7a7;stroke-width:6;stroke-linecap:round;stroke-linejoin:round;stroke-miterlimit:4;stroke-dasharray:none;stroke-dashoffset:0;stroke-opacity:1"
       d="m 250.91452,402.49228 -9.99999,17.3205"
       id="path4472-3"
       inkscape:connector-curvature="0"
       inkscape:export-filename="G:\Lomba\FWD Hackathon 2017\Icons\Umur\s4.png"
       inkscape:export-xdpi="59.016392"
       inkscape:export-ydpi="59.016392" />
    <path
       transform="translate(550.91454,-270.88425)"
       inkscape:connector-curvature="0"
       style="opacity:1;fill:#a8a7a7;fill-opacity:1;stroke:none"
       d="m -330,584.09375 a 30,30 0 0 0 -29.4668,24.46289 11.464982,11.464982 0 0 0 -9.06836,-4.46289 11.464982,11.464982 0 0 0 -11.46484,11.46484 11.464982,11.464982 0 0 0 11.46484,11.4668 11.464982,11.464982 0 0 0 9.57032,-5.16797 30,30 0 0 0 28.96484,22.23633 30,30 0 0 0 30,-30 30,30 0 0 0 -30,-30 z"
       id="path7205"
       clip-path="url(#clipPath7227)"
       inkscape:export-filename="G:\Lomba\FWD Hackathon 2017\Icons\Umur\s4.png"
       inkscape:export-xdpi="59.016392"
       inkscape:export-ydpi="59.016392" />
    <path
       transform="translate(550.91454,-270.88425)"
       inkscape:connector-curvature="0"
       style="opacity:1;fill:#a8a7a7;fill-opacity:1;stroke:none"
       d="m -190,644.09375 a 30,30 0 0 0 -30,30 30,30 0 0 0 30,30 30,30 0 0 0 16.68945,-5.09961 20,20 0 0 0 13.31055,5.09961 20,20 0 0 0 20,-20 20,20 0 0 0 -20,-20 20,20 0 0 0 -1.7207,0.0879 A 30,30 0 0 0 -190,644.09375 Z"
       id="path7209"
       clip-path="url(#clipPath7218)"
       inkscape:export-filename="G:\Lomba\FWD Hackathon 2017\Icons\Umur\s4.png"
       inkscape:export-xdpi="59.016392"
       inkscape:export-ydpi="59.016392" />
    <path
       inkscape:connector-curvature="0"
       id="path7222"
       d="m 350.91453,353.21024 a 40.000002,40 0 0 0 -40,40 20.000001,20 0 0 0 -20,20 l 118.25,0 a 30.000002,30 0 0 0 1.75,-10 30.000002,30 0 0 0 -25.17188,-29.57227 40.000002,40 0 0 0 -34.82812,-20.42773 z"
       style="opacity:1;fill:none;fill-opacity:1;stroke:#304d50;stroke-width:6;stroke-linecap:round;stroke-linejoin:round;stroke-miterlimit:4;stroke-dasharray:none;stroke-dashoffset:0;stroke-opacity:1"
       inkscape:export-filename="G:\Lomba\FWD Hackathon 2017\Icons\Umur\s4.png"
       inkscape:export-xdpi="59.016392"
       inkscape:export-ydpi="59.016392" />
    <path
       inkscape:connector-curvature="0"
       id="path7231"
       d="m 230.91452,293.21024 a 40.000002,40 0 0 0 -40,40 20.000001,20 0 0 0 -20,20 l 120.00001,0 a 20.000001,20 0 0 0 -20,-20 40.000002,40 0 0 0 -40.00001,-40 z"
       style="opacity:1;fill:none;fill-opacity:1;stroke:#304d50;stroke-width:6;stroke-linecap:round;stroke-linejoin:round;stroke-miterlimit:4;stroke-dasharray:none;stroke-dashoffset:0;stroke-opacity:1"
       inkscape:export-filename="G:\Lomba\FWD Hackathon 2017\Icons\Umur\s4.png"
       inkscape:export-xdpi="59.016392"
       inkscape:export-ydpi="59.016392" />
  </g>
</svg>
