<?xml version="1.0" encoding="UTF-8" standalone="no"?>
<!-- Created with Inkscape (http://www.inkscape.org/) -->

<svg
   xmlns:dc="http://purl.org/dc/elements/1.1/"
   xmlns:cc="http://creativecommons.org/ns#"
   xmlns:rdf="http://www.w3.org/1999/02/22-rdf-syntax-ns#"
   xmlns:svg="http://www.w3.org/2000/svg"
   xmlns="http://www.w3.org/2000/svg"
   xmlns:sodipodi="http://sodipodi.sourceforge.net/DTD/sodipodi-0.dtd"
   xmlns:inkscape="http://www.inkscape.org/namespaces/inkscape"
   width="72.248894mm"
   height="58.125893mm"
   viewBox="0 0 256.00004 205.9579"
   id="svg2"
   version="1.1"
   inkscape:version="0.91 r13725"
   sodipodi:docname="5.svg">
  <defs
     id="defs4">
    <clipPath
       clipPathUnits="userSpaceOnUse"
       id="clipPath7191">
      <path
         inkscape:connector-curvature="0"
         id="path7193"
         d="m -610,545.55947 a 30,30 0 0 0 -28.34961,20.28516 18.535015,18.535015 0 0 0 -3.11523,-0.28516 18.535015,18.535015 0 0 0 -18.53516,18.53516 18.535015,18.535015 0 0 0 0.0723,1.46484 l 78.17773,0 a 30,30 0 0 0 1.75,-10 30,30 0 0 0 -30,-30 z"
         style="opacity:1;fill:#ffffff;fill-opacity:1;stroke:#898989;stroke-width:6;stroke-linecap:round;stroke-linejoin:round;stroke-miterlimit:4;stroke-dasharray:none;stroke-dashoffset:0;stroke-opacity:1" />
    </clipPath>
    <clipPath
       clipPathUnits="userSpaceOnUse"
       id="clipPath7197">
      <path
         inkscape:connector-curvature="0"
         id="path7199"
         d="m -752.92969,604.09375 a 27.07004,27.07004 0 0 1 26.11133,20.04883 20,20 0 0 1 0.95898,-0.0488 20,20 0 0 1 20,20 l -70.82227,0 A 27.07004,27.07004 0 0 1 -780,631.16406 a 27.07004,27.07004 0 0 1 27.07031,-27.07031 z"
         style="opacity:1;fill:#ffffff;fill-opacity:1;stroke:#898989;stroke-width:6;stroke-linecap:round;stroke-linejoin:round;stroke-miterlimit:4;stroke-dasharray:none;stroke-dashoffset:0;stroke-opacity:1" />
    </clipPath>
    <clipPath
       clipPathUnits="userSpaceOnUse"
       id="clipPath7218">
      <path
         inkscape:connector-curvature="0"
         id="path7220"
         d="m -200,624.09449 a 40,40 0 0 0 -40,40 20,20 0 0 0 -20,20 l 118.25,0 a 30,30 0 0 0 1.75,-10 30,30 0 0 0 -25.17188,-29.57227 A 40,40 0 0 0 -200,624.09449 Z"
         style="opacity:1;fill:#ffffff;fill-opacity:1;stroke:#304d50;stroke-width:6;stroke-linecap:round;stroke-linejoin:round;stroke-miterlimit:4;stroke-dasharray:none;stroke-dashoffset:0;stroke-opacity:1" />
    </clipPath>
    <clipPath
       clipPathUnits="userSpaceOnUse"
       id="clipPath7227">
      <path
         inkscape:connector-curvature="0"
         id="path7229"
         d="m -320,564.09449 a 40,40 0 0 0 -40,40 20,20 0 0 0 -20,20 l 120,0 a 20,20 0 0 0 -20,-20 40,40 0 0 0 -40,-40 z"
         style="opacity:1;fill:#ffffff;fill-opacity:1;stroke:#304d50;stroke-width:6;stroke-linecap:round;stroke-linejoin:round;stroke-miterlimit:4;stroke-dasharray:none;stroke-dashoffset:0;stroke-opacity:1" />
    </clipPath>
    <clipPath
       clipPathUnits="userSpaceOnUse"
       id="clipPath7257">
      <path
         inkscape:connector-curvature="0"
         id="path7259"
         d="m -760,1024.0945 a 29.999996,29.999996 0 0 0 -30,30 29.999996,29.999996 0 0 0 1.75,10 l -11.75,0 c -5.54,0 -10,4.46 -10,10 0,5.5399 4.46,10 10,10 l 40,0 60,0 c 5.54,0 10,-4.4601 10,-10 0,-5.54 -4.46,-10 -10,-10 l -31.75391,0 a 29.999996,29.999996 0 0 0 1.75391,-10 29.999996,29.999996 0 0 0 -30,-30 z"
         style="opacity:1;fill:#ffffff;fill-opacity:1;stroke:#304d50;stroke-width:6;stroke-linecap:round;stroke-linejoin:round;stroke-miterlimit:4;stroke-dasharray:none;stroke-dashoffset:0;stroke-opacity:1" />
    </clipPath>
    <clipPath
       clipPathUnits="userSpaceOnUse"
       id="clipPath7263">
      <path
         sodipodi:nodetypes="scssscssscs"
         inkscape:connector-curvature="0"
         id="path7265"
         d="m -600,1024.0945 c -11.0457,0 -20,8.9543 -20,20 l -40,7e-4 c -5.54,10e-5 -10,4.46 -10,10 0,5.5399 4.46,10.0001 10,10 l 60,-7e-4 30,0 c 5.54,0 10,-4.4601 10,-10 0,-5.54 -4.46,-10 -10,-10 l -10,0 c 0,-11.0457 -8.9543,-20 -20,-20 z"
         style="opacity:1;fill:#ffffff;fill-opacity:1;stroke:#304d50;stroke-width:6;stroke-linecap:round;stroke-linejoin:round;stroke-miterlimit:4;stroke-dasharray:none;stroke-dashoffset:0;stroke-opacity:1" />
    </clipPath>
  </defs>
  <sodipodi:namedview
     id="base"
     pagecolor="#1a1a1a"
     bordercolor="#000000"
     borderopacity="1"
     inkscape:pageopacity="0"
     inkscape:pageshadow="2"
     inkscape:zoom="0.56637383"
     inkscape:cx="224.88742"
     inkscape:cy="69.827539"
     inkscape:document-units="px"
     inkscape:current-layer="layer2"
     showgrid="true"
     inkscape:showpageshadow="true"
     borderlayer="false"
     inkscape:window-width="1366"
     inkscape:window-height="715"
     inkscape:window-x="-8"
     inkscape:window-y="-8"
     inkscape:window-maximized="1"
     showborder="false"
     inkscape:object-paths="true"
     inkscape:snap-intersection-paths="true"
     inkscape:object-nodes="true"
     inkscape:snap-smooth-nodes="true"
     fit-margin-top="0"
     fit-margin-left="0"
     fit-margin-right="0"
     fit-margin-bottom="0">
    <inkscape:grid
       type="xygrid"
       id="grid8099"
       empspacing="20"
       originx="5.0854838"
       originy="-378.28678" />
  </sodipodi:namedview>
  <metadata
     id="metadata7">
    <rdf:RDF>
      <cc:Work
         rdf:about="">
        <dc:format>image/svg+xml</dc:format>
        <dc:type
           rdf:resource="http://purl.org/dc/dcmitype/StillImage" />
        <dc:title></dc:title>
      </cc:Work>
    </rdf:RDF>
  </metadata>
  <g
     inkscape:groupmode="layer"
     id="layer2"
     inkscape:label="Layer 1"
     transform="translate(5.0854903,-159.84983)">
    <ellipse
       cy="262.84982"
       cx="127.91451"
       id="circle7235"
       style="opacity:1;fill:#e87722;fill-opacity:1;stroke:#ffffff;stroke-width:16;stroke-linecap:round;stroke-linejoin:round;stroke-miterlimit:4;stroke-dasharray:none;stroke-dashoffset:0;stroke-opacity:1"
       inkscape:export-filename="G:\Lomba\FWD Hackathon 2017\Icons\Gender\s5.png"
       inkscape:export-xdpi="59.016392"
       inkscape:export-ydpi="59.016392"
       rx="60.000008"
       ry="60.000004" />
    <ellipse
       style="opacity:1;fill:none;fill-opacity:1;stroke:#304d50;stroke-width:6;stroke-linecap:round;stroke-linejoin:round;stroke-miterlimit:4;stroke-dasharray:none;stroke-dashoffset:0;stroke-opacity:1"
       id="circle4752"
       cx="127.91451"
       cy="262.84982"
       inkscape:export-filename="G:\Lomba\FWD Hackathon 2017\Icons\Gender\s5.png"
       inkscape:export-xdpi="59.016392"
       inkscape:export-ydpi="59.016392"
       rx="60.000008"
       ry="60.000004" />
    <path
       style="opacity:1;fill:#ffffff;fill-opacity:1;stroke:#304d50;stroke-width:6;stroke-linecap:round;stroke-linejoin:round;stroke-miterlimit:4;stroke-dasharray:none;stroke-dashoffset:0;stroke-opacity:1"
       d="m 47.91451,242.84984 a 29.999998,29.999996 0 0 0 -30,30 29.999998,29.999996 0 0 0 1.75,10 l -11.7500003,0 c -5.54,0 -10,4.46 -10,10 0,5.5399 4.46,10 10,10 l 40.0000003,0 60.00001,0 c 5.54,0 10,-4.4601 10,-10 0,-5.54 -4.46,-10 -10,-10 l -31.75392,0 a 29.999998,29.999996 0 0 0 1.75391,-10 29.999998,29.999996 0 0 0 -30,-30 z"
       id="rect4776"
       inkscape:connector-curvature="0"
       inkscape:export-filename="G:\Lomba\FWD Hackathon 2017\Icons\Gender\s5.png"
       inkscape:export-xdpi="59.016392"
       inkscape:export-ydpi="59.016392" />
    <path
       style="opacity:1;fill:#ffffff;fill-opacity:1;stroke:#304d50;stroke-width:6;stroke-linecap:round;stroke-linejoin:round;stroke-miterlimit:4;stroke-dasharray:none;stroke-dashoffset:0;stroke-opacity:1"
       d="m 207.91452,242.84984 c -11.0457,0 -20,8.9543 -20,20 l -40,7e-4 c -5.54,10e-5 -10,4.46 -10,10 0,5.5399 4.46,10.0001 10,10 l 60,-7e-4 30,0 c 5.54,0 10.00001,-4.4601 10.00001,-10 0,-5.54 -4.46001,-10 -10.00001,-10 l -10,0 c 0,-11.0457 -8.9543,-20 -20,-20 z"
       id="rect4793"
       inkscape:connector-curvature="0"
       sodipodi:nodetypes="scssscssscs"
       inkscape:export-filename="G:\Lomba\FWD Hackathon 2017\Icons\Gender\s5.png"
       inkscape:export-xdpi="59.016392"
       inkscape:export-ydpi="59.016392" />
    <path
       style="opacity:1;fill:#ffffff;fill-opacity:1;stroke:#a8a7a7;stroke-width:6;stroke-linecap:round;stroke-linejoin:round;stroke-miterlimit:4;stroke-dasharray:none;stroke-dashoffset:0;stroke-opacity:1"
       d="m 187.91452,342.84984 c 0,0 20,0 20,20 0,-20 20,-20 20,-20"
       id="path4943"
       inkscape:connector-curvature="0"
       sodipodi:nodetypes="ccc"
       inkscape:export-filename="G:\Lomba\FWD Hackathon 2017\Icons\Gender\s5.png"
       inkscape:export-xdpi="59.016392"
       inkscape:export-ydpi="59.016392" />
    <path
       sodipodi:nodetypes="ccc"
       inkscape:connector-curvature="0"
       id="path4949"
       d="m 167.91452,182.84983 c 0,0 20,0 20,20.00001 0,-20.00001 20,-20.00001 20,-20.00001"
       style="opacity:1;fill:#ffffff;fill-opacity:1;stroke:#304d50;stroke-width:6;stroke-linecap:round;stroke-linejoin:round;stroke-miterlimit:4;stroke-dasharray:none;stroke-dashoffset:0;stroke-opacity:1"
       inkscape:export-filename="G:\Lomba\FWD Hackathon 2017\Icons\Gender\s5.png"
       inkscape:export-xdpi="59.016392"
       inkscape:export-ydpi="59.016392" />
    <path
       style="opacity:1;fill:#ffffff;fill-opacity:1;stroke:#a8a7a7;stroke-width:6;stroke-linecap:round;stroke-linejoin:round;stroke-miterlimit:4;stroke-dasharray:none;stroke-dashoffset:0;stroke-opacity:1"
       d="m 167.91452,182.84983 c 0,0 20,0 20,20.00001 0,-20.00001 20,-20.00001 20,-20.00001"
       id="path4951"
       inkscape:connector-curvature="0"
       sodipodi:nodetypes="ccc"
       inkscape:export-filename="G:\Lomba\FWD Hackathon 2017\Icons\Gender\s5.png"
       inkscape:export-xdpi="59.016392"
       inkscape:export-ydpi="59.016392" />
    <path
       style="opacity:1;fill:#ffffff;fill-opacity:1;stroke:#304d50;stroke-width:6;stroke-linecap:round;stroke-linejoin:round;stroke-miterlimit:4;stroke-dasharray:none;stroke-dashoffset:0;stroke-opacity:1"
       d="m 47.91451,162.84983 c -5.54,0 -10,4.46 -10,10 0,5.54 4.46,10 10,10 l -20,0 c -5.54,0 -10,4.46 -10,10 0,5.54 4.46,10 10,10 l 40,0 c 5.54,0 10,-4.46 10,-10 0,-5.54 -4.46,-10 -10,-10 l 60.00001,0 c 5.54,0 10,-4.46 10,-10 0,-5.54 -4.46,-10 -10,-10 z"
       id="rect4964"
       inkscape:connector-curvature="0"
       sodipodi:nodetypes="sscssssscssss"
       inkscape:export-filename="G:\Lomba\FWD Hackathon 2017\Icons\Gender\s5.png"
       inkscape:export-xdpi="59.016392"
       inkscape:export-ydpi="59.016392" />
    <path
       sodipodi:nodetypes="ccc"
       inkscape:connector-curvature="0"
       id="path4975"
       d="m 27.91451,322.84984 c 0,0 20,0 20,20 0,-20 20,-20 20,-20"
       style="opacity:1;fill:#ffffff;fill-opacity:1;stroke:#898989;stroke-width:6;stroke-linecap:round;stroke-linejoin:round;stroke-miterlimit:4;stroke-dasharray:none;stroke-dashoffset:0;stroke-opacity:1"
       inkscape:export-filename="G:\Lomba\FWD Hackathon 2017\Icons\Gender\s5.png"
       inkscape:export-xdpi="59.016392"
       inkscape:export-ydpi="59.016392" />
    <circle
       transform="translate(807.91456,-781.24466)"
       style="opacity:1;fill:#a8a7a7;fill-opacity:1;stroke:none;stroke-width:16;stroke-opacity:1"
       id="path7249"
       cx="-582"
       cy="1054.0945"
       r="20"
       clip-path="url(#clipPath7263)"
       inkscape:export-filename="G:\Lomba\FWD Hackathon 2017\Icons\Gender\s5.png"
       inkscape:export-xdpi="59.016392"
       inkscape:export-ydpi="59.016392" />
    <circle
       transform="translate(807.91456,-781.24466)"
       style="opacity:1;fill:#a8a7a7;fill-opacity:1;stroke:none;stroke-width:16;stroke-opacity:1"
       id="path7253"
       cx="-785"
       cy="1059.0945"
       r="35"
       clip-path="url(#clipPath7257)"
       inkscape:export-filename="G:\Lomba\FWD Hackathon 2017\Icons\Gender\s5.png"
       inkscape:export-xdpi="59.016392"
       inkscape:export-ydpi="59.016392" />
    <path
       inkscape:connector-curvature="0"
       id="path7267"
       d="m 47.91451,242.84984 a 29.999998,29.999996 0 0 0 -30,30 29.999998,29.999996 0 0 0 1.75,10 l -11.7500003,0 c -5.54,0 -10,4.46 -10,10 0,5.5399 4.46,10 10,10 l 40.0000003,0 60.00001,0 c 5.54,0 10,-4.4601 10,-10 0,-5.54 -4.46,-10 -10,-10 l -31.75392,0 a 29.999998,29.999996 0 0 0 1.75391,-10 29.999998,29.999996 0 0 0 -30,-30 z"
       style="opacity:1;fill:none;fill-opacity:1;stroke:#304d50;stroke-width:6;stroke-linecap:round;stroke-linejoin:round;stroke-miterlimit:4;stroke-dasharray:none;stroke-dashoffset:0;stroke-opacity:1"
       inkscape:export-filename="G:\Lomba\FWD Hackathon 2017\Icons\Gender\s5.png"
       inkscape:export-xdpi="59.016392"
       inkscape:export-ydpi="59.016392" />
    <path
       sodipodi:nodetypes="scssscssscs"
       inkscape:connector-curvature="0"
       id="path7269"
       d="m 207.91452,242.84984 c -11.0457,0 -20,8.9543 -20,20 l -40,7e-4 c -5.54,10e-5 -10,4.46 -10,10 0,5.5399 4.46,10.0001 10,10 l 60,-7e-4 30,0 c 5.54,0 10.00001,-4.4601 10.00001,-10 0,-5.54 -4.46001,-10 -10.00001,-10 l -10,0 c 0,-11.0457 -8.9543,-20 -20,-20 z"
       style="opacity:1;fill:none;fill-opacity:1;stroke:#304d50;stroke-width:6;stroke-linecap:round;stroke-linejoin:round;stroke-miterlimit:4;stroke-dasharray:none;stroke-dashoffset:0;stroke-opacity:1"
       inkscape:export-filename="G:\Lomba\FWD Hackathon 2017\Icons\Gender\s5.png"
       inkscape:export-xdpi="59.016392"
       inkscape:export-ydpi="59.016392" />
  </g>
</svg>
